<svg width="40" height="40" viewBox="0 0 40 40" fill="none" xmlns="http://www.w3.org/2000/svg">
<circle cx="20" cy="20" r="19.5" fill="#EBF005" stroke="black"/>
<g clip-path="url(#clip0)">
<path d="M25.1875 12.0472H23.625V9.76181C23.625 9.34129 23.275 9 22.8438 9H18.1562C17.725 9 17.375 9.34129 17.375 9.76181V12.0472H15.8125C14.9516 12.0472 14.25 12.7313 14.25 13.5709V31.8543C14.25 32.7091 14.9359 33.3779 15.8125 33.3779H25.1875C26.0641 33.3779 26.75 32.7091 26.75 31.8543V13.5709C26.75 12.7161 26.0641 12.0472 25.1875 12.0472ZM20.5 28.8071V24.2362H17.375L20.5 16.6181V21.189H23.625L20.5 28.8071Z" fill="black"/>
</g>
<defs>
<clipPath id="clip0">
<rect width="25" height="24.3779" fill="white" transform="translate(8 9)"/>
</clipPath>
</defs>
</svg>
