<svg width="13" height="15" viewBox="0 0 13 15" fill="none" xmlns="http://www.w3.org/2000/svg">
<path d="M0.183594 11.0526C0.183594 11.7632 0.499383 12.3947 0.973067 12.7895V14.2105C0.973067 14.6842 1.28886 15 1.76254 15H2.55201C3.0257 15 3.34149 14.6842 3.34149 14.2105V13.4211H9.65728V14.2105C9.65728 14.6842 9.97307 15 10.4468 15H11.2362C11.7099 15 12.0257 14.6842 12.0257 14.2105V12.7895C12.4994 12.3947 12.8152 11.7632 12.8152 11.0526V3.15789C12.8152 0.394737 9.97307 0 6.49938 0C3.0257 0 0.183594 0.394737 0.183594 3.15789V11.0526ZM2.94675 11.8421C2.31517 11.8421 1.76254 11.2895 1.76254 10.6579C1.76254 10.0263 2.31517 9.47368 2.94675 9.47368C3.57833 9.47368 4.13096 10.0263 4.13096 10.6579C4.13096 11.2895 3.57833 11.8421 2.94675 11.8421ZM10.052 11.8421C9.42043 11.8421 8.8678 11.2895 8.8678 10.6579C8.8678 10.0263 9.42043 9.47368 10.052 9.47368C10.6836 9.47368 11.2362 10.0263 11.2362 10.6579C11.2362 11.2895 10.6836 11.8421 10.052 11.8421ZM11.2362 7.10526H1.76254V3.15789H11.2362V7.10526Z" fill="black"/>
</svg>
