<svg width="34" height="34" viewBox="0 0 34 34" fill="none" xmlns="http://www.w3.org/2000/svg">
<path d="M31.6199 15.2458L30.7394 11.8115C30.9801 11.7617 31.1607 11.5534 31.1607 11.3039V10.7502C31.1607 9.548 30.1577 8.56995 28.9248 8.56995H24.9144V7.42782C24.9144 6.83623 24.4209 6.35498 23.8142 6.35498H3.37158C2.76489 6.35498 2.27136 6.83623 2.27136 7.42782V16.8411C2.27136 17.1278 2.50969 17.3602 2.80374 17.3602C3.09772 17.3602 3.33612 17.1278 3.33612 16.8411V7.42782C3.33612 7.40872 3.35199 7.39324 3.37158 7.39324H23.8141C23.8337 7.39324 23.8496 7.40872 23.8496 7.42782V16.8412C23.8496 17.1279 24.0879 17.3604 24.382 17.3604C24.676 17.3604 24.9144 17.128 24.9144 16.8412V16.2527H31.1943C31.1949 16.2527 31.1953 16.2529 31.1957 16.2529C31.1963 16.2529 31.1967 16.2528 31.1972 16.2528C31.97 16.2533 32.6261 16.7479 32.8515 17.4295H31.1961C30.9021 17.4295 30.6637 17.6619 30.6637 17.9486V19.056C30.6637 19.9529 31.412 20.6826 32.3318 20.6826H32.9352V22.9666H31.5432C31.0859 21.6791 29.8307 20.7517 28.3569 20.7517C26.883 20.7517 25.6278 21.6791 25.1706 22.9666H24.9142V19.0559C24.9142 18.7693 24.6759 18.5368 24.3819 18.5368C24.0879 18.5368 23.8495 18.7692 23.8495 19.0559V22.9665H12.8043C12.347 21.679 11.0918 20.7516 9.61795 20.7516C8.14406 20.7516 6.88885 21.679 6.43164 22.9665H3.37158C3.35199 22.9665 3.33612 22.951 3.33612 22.9319V21.7898H5.643C5.93698 21.7898 6.17538 21.5574 6.17538 21.2707C6.17538 20.984 5.93705 20.7516 5.643 20.7516H0.532379C0.238398 20.7516 0 20.984 0 21.2707C0 21.5574 0.238332 21.7898 0.532379 21.7898H2.27143V22.9319C2.27143 23.5235 2.76496 24.0048 3.37164 24.0048H6.2473C6.24717 24.0163 6.24637 24.0277 6.24637 24.0393C6.24637 25.8522 7.75891 27.327 9.61795 27.327C11.477 27.327 12.9895 25.8522 12.9895 24.0393C12.9895 24.0277 12.9887 24.0163 12.9886 24.0048H24.9862C24.9861 24.0163 24.9853 24.0277 24.9853 24.0393C24.9853 25.8522 26.4978 27.327 28.3569 27.327C30.2159 27.327 31.7284 25.8522 31.7284 24.0393C31.7284 24.0277 31.7276 24.0163 31.7275 24.0048H33.4676C33.7615 24.0048 33.9999 23.7724 33.9999 23.4856V17.9485C34 16.5814 32.9656 15.4455 31.6199 15.2458ZM24.9144 9.60815H28.9248C29.5706 9.60815 30.096 10.1205 30.096 10.7502V10.7848H24.9144V9.60815ZM24.9144 15.2145V11.823H29.6449L30.5144 15.2145H24.9144ZM9.61795 26.2889C8.34594 26.2889 7.31106 25.2799 7.31106 24.0395C7.31106 22.799 8.34594 21.79 9.61795 21.79C10.89 21.79 11.9248 22.799 11.9248 24.0395C11.9248 25.2799 10.89 26.2889 9.61795 26.2889ZM28.357 26.2889C27.085 26.2889 26.0501 25.2799 26.0501 24.0395C26.0501 22.799 27.085 21.79 28.357 21.79C29.629 21.79 30.6639 22.799 30.6639 24.0395C30.6639 25.2799 29.629 26.2889 28.357 26.2889ZM32.9353 19.6443H32.3319C31.9992 19.6443 31.7286 19.3804 31.7286 19.0559V18.4676H32.9352V19.6443H32.9353Z" fill="#D8DC04"/>
<path d="M9.6178 22.9663C9.01111 22.9663 8.51758 23.4476 8.51758 24.0392C8.51758 24.6307 9.01111 25.112 9.6178 25.112C10.2245 25.112 10.718 24.6307 10.718 24.0392C10.718 23.4476 10.2245 22.9663 9.6178 22.9663Z" fill="#D8DC04"/>
<path d="M28.3571 22.9663C27.7504 22.9663 27.2568 23.4476 27.2568 24.0392C27.2568 24.6307 27.7504 25.112 28.3571 25.112C28.9637 25.112 29.4573 24.6307 29.4573 24.0392C29.4573 23.4476 28.9637 22.9663 28.3571 22.9663Z" fill="#D8DC04"/>
<path d="M22.1107 20.752H14.1608C13.8668 20.752 13.6284 20.9844 13.6284 21.2711C13.6284 21.5578 13.8667 21.7902 14.1608 21.7902H22.1107C22.4046 21.7902 22.643 21.5578 22.643 21.2711C22.643 20.9844 22.4047 20.752 22.1107 20.752Z" fill="#D8DC04"/>
<path d="M8.48233 18.5371H1.66812C1.37414 18.5371 1.13574 18.7695 1.13574 19.0562C1.13574 19.343 1.37407 19.5754 1.66812 19.5754H8.48233C8.77631 19.5754 9.0147 19.343 9.0147 19.0562C9.0147 18.7695 8.77631 18.5371 8.48233 18.5371Z" fill="#D8DC04"/>
<path d="M18.5125 11.4909C18.3047 11.2882 17.9675 11.2882 17.7597 11.4909L13.0254 16.1073L10.5626 13.7058C10.3547 13.503 10.0176 13.503 9.80975 13.7058C9.60183 13.9085 9.60183 14.2371 9.80975 14.4399L12.649 17.2085C12.7529 17.3099 12.8892 17.3605 13.0254 17.3605C13.1616 17.3605 13.2979 17.3099 13.4018 17.2085L18.5124 12.225C18.7204 12.0222 18.7204 11.6936 18.5125 11.4909Z" fill="#D8DC04"/>
</svg>
