<svg width="38" height="37" viewBox="0 0 38 37" fill="none" xmlns="http://www.w3.org/2000/svg">
<mask id="mask0" style="mask-type:alpha" maskUnits="userSpaceOnUse" x="0" y="0" width="38" height="37">
<path fill-rule="evenodd" clip-rule="evenodd" d="M37.1493 18.5005C37.1493 19.1463 37.3439 19.8541 37.5506 20.6029L37.5511 20.6048C37.8799 21.7969 38.2196 23.0284 37.8136 24.2278C37.3914 25.4736 36.3418 26.2876 35.326 27.075C34.7171 27.5463 34.142 27.9927 33.7689 28.4833C33.392 28.9804 33.1247 29.6453 32.8418 30.3489L32.8391 30.3556L32.8369 30.361C32.3703 31.5216 31.8876 32.7222 30.8059 33.4771C29.7434 34.2186 28.418 34.2894 27.1359 34.3578C26.3365 34.4004 25.5804 34.4414 24.9475 34.6385C24.3574 34.8218 23.749 35.2012 23.1049 35.6029L23.096 35.6084L23.0927 35.6105C22.0487 36.2615 20.8659 36.999 19.4984 36.999C18.1323 36.999 16.9513 36.2629 15.9089 35.6132L15.9025 35.6092L15.8988 35.6069C15.2527 35.204 14.6419 34.8231 14.051 34.6393C13.418 34.4422 12.662 34.4012 11.8626 34.3586C10.5813 34.2902 9.25507 34.2194 8.19261 33.4779C7.11098 32.7219 6.62759 31.5205 6.16035 30.3593L6.16018 30.3589C5.87627 29.6511 5.60764 28.9835 5.22721 28.4833C4.85483 27.9927 4.27976 27.5463 3.67092 27.075C2.65591 26.2884 1.60632 25.4736 1.18488 24.2286C0.778712 23.0286 1.11812 21.7956 1.44627 20.6037C1.65297 19.8549 1.84761 19.1471 1.84761 18.5013C1.84761 17.8555 1.65297 17.1485 1.44627 16.3997C1.42053 16.3062 1.39452 16.2133 1.36865 16.1209C1.06467 15.0356 0.779949 14.019 1.18488 12.7756C1.59585 11.5136 2.45715 10.8566 3.36487 10.1642C3.46623 10.0869 3.56816 10.0091 3.67012 9.93004C3.77566 9.84806 3.8765 9.77176 3.97368 9.69823C4.43715 9.34757 4.81742 9.05985 5.22721 8.51933C5.78884 7.77853 5.87652 7.49725 5.9918 7.12748C6.03514 6.98845 6.08238 6.83691 6.16018 6.64373C6.19306 6.56201 6.22551 6.48052 6.25783 6.39935C6.68483 5.32693 7.09004 4.30923 8.191 3.52713C9.26683 2.76288 10.3307 2.71465 11.4612 2.66339C11.594 2.65737 11.7278 2.6513 11.8626 2.64403C12.0009 2.63665 12.1324 2.63129 12.2595 2.62612C12.8665 2.60138 13.373 2.58075 14.0518 2.36333C14.7082 2.15309 15.1142 1.89443 15.6147 1.57563C15.7072 1.51669 15.8029 1.45569 15.9041 1.39256C16.9472 0.740286 18.1303 0.00195312 19.4984 0.00195312C20.8665 0.00195312 22.0496 0.740286 23.0928 1.39176C23.741 1.79631 24.3539 2.17835 24.9459 2.36253C25.5788 2.55958 26.3349 2.6006 27.1343 2.64322C28.4155 2.71159 29.7426 2.78317 30.8059 3.52633C31.8856 4.27987 32.3683 5.47957 32.8351 6.63971L32.8367 6.64373C33.1198 7.3507 33.3884 8.01826 33.7681 8.51852C34.1406 9.00829 34.7143 9.45318 35.322 9.92439L35.3251 9.92682C36.341 10.7134 37.3914 11.5282 37.8128 12.7748C38.219 13.9732 37.8796 15.2061 37.5506 16.3981C37.3439 17.1469 37.1493 17.8547 37.1493 18.5005ZM34.3408 25.8026C35.2058 25.1321 36.0233 24.4985 36.2894 23.7123C36.5379 22.9796 36.2766 22.0329 35.9998 21.0308C35.773 20.212 35.5406 19.3659 35.5406 18.5013C35.5406 17.6367 35.7738 16.7906 35.9998 15.971L36.0028 15.9604C36.2776 14.9622 36.537 14.0197 36.2894 13.2911C36.0236 12.5043 35.208 11.8713 34.3442 11.201L34.3398 11.1976L34.3369 11.1953C33.6742 10.6813 32.9887 10.1494 32.4883 9.4909C31.9793 8.82181 31.659 8.02608 31.3484 7.2543L31.3438 7.24293C30.9481 6.25768 30.5733 5.32632 29.8849 4.84535C29.198 4.366 28.154 4.3089 27.0482 4.25018L27.0384 4.24966C26.1784 4.20317 25.2893 4.15512 24.468 3.89952C23.6774 3.6534 22.9479 3.19818 22.2417 2.75663C21.2975 2.16709 20.4056 1.61052 19.4983 1.61052C18.593 1.61052 17.7038 2.16471 16.7626 2.75125L16.7565 2.75502C16.6817 2.80171 16.6082 2.84801 16.5355 2.89382C15.9217 3.28049 15.3623 3.63284 14.5295 3.89791C13.686 4.16637 13.0092 4.19843 12.2794 4.23299C12.1708 4.23814 12.061 4.24334 11.9493 4.24938C10.8434 4.30809 9.79866 4.36359 9.1118 4.84375C8.42414 5.3231 8.04935 6.25446 7.65364 7.24132L7.64962 7.2513C7.33881 8.02272 7.01766 8.8198 6.50834 9.48929C6.00881 10.1486 5.32245 10.6813 4.65903 11.1961L4.65607 11.1984L4.65444 11.1997C3.79044 11.87 2.97495 12.5026 2.7089 13.2887C2.46037 14.0214 2.72096 14.9681 2.99763 15.9702C3.02279 16.0618 3.04804 16.1519 3.07306 16.2412C3.27202 16.9512 3.45603 17.6079 3.45608 18.4997C3.45613 19.3919 3.27199 20.049 3.07298 20.7593C3.04799 20.8485 3.02276 20.9385 2.99763 21.03L2.99658 21.0338C2.7211 22.0345 2.46069 22.9805 2.7089 23.7123C2.97466 24.4975 3.7895 25.1297 4.65247 25.7992L4.65687 25.8026L4.66117 25.8059C5.32418 26.3204 6.00915 26.852 6.50914 27.5101C7.01906 28.1825 7.34157 28.9827 7.65283 29.7573C8.04935 30.7441 8.42495 31.6763 9.11341 32.1572C9.79947 32.6358 10.8434 32.6921 11.9485 32.7508C12.8115 32.7966 13.7051 32.8449 14.5303 33.1015C15.3201 33.3484 16.0496 33.8036 16.7541 34.2436C17.6992 34.8339 18.5903 35.3905 19.4983 35.3905C20.4064 35.3905 21.2983 34.8339 22.2434 34.2436C22.9487 33.8028 23.679 33.3484 24.468 33.1015C25.2931 32.8441 26.1866 32.7967 27.0496 32.7508H27.0498C28.1548 32.6921 29.198 32.6366 29.8849 32.1572C30.5741 31.6763 30.9489 30.7441 31.3454 29.7565C31.6567 28.9819 31.9784 28.1825 32.4875 27.5101C32.9887 26.8515 33.6743 26.3197 34.3369 25.8057L34.3398 25.8034L34.3408 25.8026ZM7.43273 18.4998C7.43273 11.8476 12.8448 6.43555 19.497 6.43555C26.1492 6.43555 31.5613 11.8476 31.5613 18.4998C31.5613 25.1521 26.1492 30.5641 19.497 30.5641C12.8448 30.5641 7.43273 25.1521 7.43273 18.4998ZM9.0413 18.4998C9.0413 24.2649 13.7319 28.9555 19.497 28.9555C25.2621 28.9555 29.9527 24.2649 29.9527 18.4998C29.9527 16.3065 29.2707 14.2717 28.1125 12.5891L20.1525 23.7912C20.0158 23.9842 19.8002 24.1073 19.5646 24.1266C19.542 24.129 19.5187 24.1298 19.497 24.1298C19.2847 24.1298 19.0796 24.0462 18.9284 23.8942L14.1027 19.0684C13.7882 18.754 13.7882 18.2457 14.1027 17.9312C14.4171 17.6167 14.9254 17.6167 15.2399 17.9312L19.3924 22.0837L27.0573 11.2974C25.1511 9.298 22.4704 8.04412 19.497 8.04412C13.7319 8.04412 9.0413 12.7347 9.0413 18.4998Z" fill="white"/>
</mask>
<g mask="url(#mask0)">
<path fill-rule="evenodd" clip-rule="evenodd" d="M37.1493 18.5005C37.1493 19.1463 37.3439 19.8541 37.5506 20.6029L37.5511 20.6048C37.8799 21.7969 38.2196 23.0284 37.8136 24.2278C37.3914 25.4736 36.3418 26.2876 35.326 27.075C34.7171 27.5463 34.142 27.9927 33.7689 28.4833C33.392 28.9804 33.1247 29.6453 32.8418 30.3489L32.8391 30.3556L32.8369 30.361C32.3703 31.5216 31.8876 32.7222 30.8059 33.4771C29.7434 34.2186 28.418 34.2894 27.1359 34.3578C26.3365 34.4004 25.5804 34.4414 24.9475 34.6385C24.3574 34.8218 23.749 35.2012 23.1049 35.6029L23.096 35.6084L23.0927 35.6105C22.0487 36.2615 20.8659 36.999 19.4984 36.999C18.1323 36.999 16.9513 36.2629 15.9089 35.6132L15.9025 35.6092L15.8988 35.6069C15.2527 35.204 14.6419 34.8231 14.051 34.6393C13.418 34.4422 12.662 34.4012 11.8626 34.3586C10.5813 34.2902 9.25507 34.2194 8.19261 33.4779C7.11098 32.7219 6.62759 31.5205 6.16035 30.3593L6.16018 30.3589C5.87627 29.6511 5.60764 28.9835 5.22721 28.4833C4.85483 27.9927 4.27976 27.5463 3.67092 27.075C2.65591 26.2884 1.60632 25.4736 1.18488 24.2286C0.778712 23.0286 1.11812 21.7956 1.44627 20.6037C1.65297 19.8549 1.84761 19.1471 1.84761 18.5013C1.84761 17.8555 1.65297 17.1485 1.44627 16.3997C1.42053 16.3062 1.39452 16.2133 1.36865 16.1209C1.06467 15.0356 0.779949 14.019 1.18488 12.7756C1.59585 11.5136 2.45715 10.8566 3.36487 10.1642C3.46623 10.0869 3.56816 10.0091 3.67012 9.93004C3.77566 9.84806 3.8765 9.77176 3.97368 9.69823C4.43715 9.34757 4.81742 9.05985 5.22721 8.51933C5.78884 7.77853 5.87652 7.49725 5.9918 7.12748C6.03514 6.98845 6.08238 6.83691 6.16018 6.64373C6.19306 6.56201 6.22551 6.48052 6.25783 6.39935C6.68483 5.32693 7.09004 4.30923 8.191 3.52713C9.26683 2.76288 10.3307 2.71465 11.4612 2.66339C11.594 2.65737 11.7278 2.6513 11.8626 2.64403C12.0009 2.63665 12.1324 2.63129 12.2595 2.62612C12.8665 2.60138 13.373 2.58075 14.0518 2.36333C14.7082 2.15309 15.1142 1.89443 15.6147 1.57563C15.7072 1.51669 15.8029 1.45569 15.9041 1.39256C16.9472 0.740286 18.1303 0.00195312 19.4984 0.00195312C20.8665 0.00195312 22.0496 0.740286 23.0928 1.39176C23.741 1.79631 24.3539 2.17835 24.9459 2.36253C25.5788 2.55958 26.3349 2.6006 27.1343 2.64322C28.4155 2.71159 29.7426 2.78317 30.8059 3.52633C31.8856 4.27987 32.3683 5.47957 32.8351 6.63971L32.8367 6.64373C33.1198 7.3507 33.3884 8.01826 33.7681 8.51852C34.1406 9.00829 34.7143 9.45318 35.322 9.92439L35.3251 9.92682C36.341 10.7134 37.3914 11.5282 37.8128 12.7748C38.219 13.9732 37.8796 15.2061 37.5506 16.3981C37.3439 17.1469 37.1493 17.8547 37.1493 18.5005ZM34.3408 25.8026C35.2058 25.1321 36.0233 24.4985 36.2894 23.7123C36.5379 22.9796 36.2766 22.0329 35.9998 21.0308C35.773 20.212 35.5406 19.3659 35.5406 18.5013C35.5406 17.6367 35.7738 16.7906 35.9998 15.971L36.0028 15.9604C36.2776 14.9622 36.537 14.0197 36.2894 13.2911C36.0236 12.5043 35.208 11.8713 34.3442 11.201L34.3398 11.1976L34.3369 11.1953C33.6742 10.6813 32.9887 10.1494 32.4883 9.4909C31.9793 8.82181 31.659 8.02608 31.3484 7.2543L31.3438 7.24293C30.9481 6.25768 30.5733 5.32632 29.8849 4.84535C29.198 4.366 28.154 4.3089 27.0482 4.25018L27.0384 4.24966C26.1784 4.20317 25.2893 4.15512 24.468 3.89952C23.6774 3.6534 22.9479 3.19818 22.2417 2.75663C21.2975 2.16709 20.4056 1.61052 19.4983 1.61052C18.593 1.61052 17.7038 2.16471 16.7626 2.75125L16.7565 2.75502C16.6817 2.80171 16.6082 2.84801 16.5355 2.89382C15.9217 3.28049 15.3623 3.63284 14.5295 3.89791C13.686 4.16637 13.0092 4.19843 12.2794 4.23299C12.1708 4.23814 12.061 4.24334 11.9493 4.24938C10.8434 4.30809 9.79866 4.36359 9.1118 4.84375C8.42414 5.3231 8.04935 6.25446 7.65364 7.24132L7.64962 7.2513C7.33881 8.02272 7.01766 8.8198 6.50834 9.48929C6.00881 10.1486 5.32245 10.6813 4.65903 11.1961L4.65607 11.1984L4.65444 11.1997C3.79044 11.87 2.97495 12.5026 2.7089 13.2887C2.46037 14.0214 2.72096 14.9681 2.99763 15.9702C3.02279 16.0618 3.04804 16.1519 3.07306 16.2412C3.27202 16.9512 3.45603 17.6079 3.45608 18.4997C3.45613 19.3919 3.27199 20.049 3.07298 20.7593C3.04799 20.8485 3.02276 20.9385 2.99763 21.03L2.99658 21.0338C2.7211 22.0345 2.46069 22.9805 2.7089 23.7123C2.97466 24.4975 3.7895 25.1297 4.65247 25.7992L4.65687 25.8026L4.66117 25.8059C5.32418 26.3204 6.00915 26.852 6.50914 27.5101C7.01906 28.1825 7.34157 28.9827 7.65283 29.7573C8.04935 30.7441 8.42495 31.6763 9.11341 32.1572C9.79947 32.6358 10.8434 32.6921 11.9485 32.7508C12.8115 32.7966 13.7051 32.8449 14.5303 33.1015C15.3201 33.3484 16.0496 33.8036 16.7541 34.2436C17.6992 34.8339 18.5903 35.3905 19.4983 35.3905C20.4064 35.3905 21.2983 34.8339 22.2434 34.2436C22.9487 33.8028 23.679 33.3484 24.468 33.1015C25.2931 32.8441 26.1866 32.7967 27.0496 32.7508H27.0498C28.1548 32.6921 29.198 32.6366 29.8849 32.1572C30.5741 31.6763 30.9489 30.7441 31.3454 29.7565C31.6567 28.9819 31.9784 28.1825 32.4875 27.5101C32.9887 26.8515 33.6743 26.3197 34.3369 25.8057L34.3398 25.8034L34.3408 25.8026ZM7.43273 18.4998C7.43273 11.8476 12.8448 6.43555 19.497 6.43555C26.1492 6.43555 31.5613 11.8476 31.5613 18.4998C31.5613 25.1521 26.1492 30.5641 19.497 30.5641C12.8448 30.5641 7.43273 25.1521 7.43273 18.4998ZM9.0413 18.4998C9.0413 24.2649 13.7319 28.9555 19.497 28.9555C25.2621 28.9555 29.9527 24.2649 29.9527 18.4998C29.9527 16.3065 29.2707 14.2717 28.1125 12.5891L20.1525 23.7912C20.0158 23.9842 19.8002 24.1073 19.5646 24.1266C19.542 24.129 19.5187 24.1298 19.497 24.1298C19.2847 24.1298 19.0796 24.0462 18.9284 23.8942L14.1027 19.0684C13.7882 18.754 13.7882 18.2457 14.1027 17.9312C14.4171 17.6167 14.9254 17.6167 15.2399 17.9312L19.3924 22.0837L27.0573 11.2974C25.1511 9.298 22.4704 8.04412 19.497 8.04412C13.7319 8.04412 9.0413 12.7347 9.0413 18.4998Z" fill="#F9FC35"/>
<path d="M37.5506 20.6029L38.5154 20.3398L38.5145 20.3368L37.5506 20.6029ZM37.5511 20.6048L36.5863 20.8679L36.5871 20.8707L37.5511 20.6048ZM37.8136 24.2278L38.7607 24.5488L38.7608 24.5484L37.8136 24.2278ZM35.326 27.075L35.9381 27.8657L35.9386 27.8653L35.326 27.075ZM33.7689 28.4833L32.9729 27.8779L32.972 27.8792L33.7689 28.4833ZM32.8418 30.3489L33.7696 30.7221V30.722L32.8418 30.3489ZM32.8391 30.3556L31.9113 29.9825L31.9112 29.9827L32.8391 30.3556ZM32.8369 30.361L33.7647 30.7341L33.7648 30.734L32.8369 30.361ZM30.8059 33.4771L30.2336 32.657L30.2335 32.6571L30.8059 33.4771ZM27.1359 34.3578L27.1892 35.3564L27.1359 34.3578ZM24.9475 34.6385L25.2442 35.5934L25.2447 35.5933L24.9475 34.6385ZM23.1049 35.6029L23.6338 36.4516L23.634 36.4514L23.1049 35.6029ZM23.096 35.6084L22.5671 34.7598L22.5665 34.7601L23.096 35.6084ZM23.0927 35.6105L23.6218 36.459L23.6222 36.4588L23.0927 35.6105ZM15.9089 35.6132L16.4378 34.7646L16.4375 34.7644L15.9089 35.6132ZM15.9025 35.6092L15.3735 36.4579L15.3739 36.4581L15.9025 35.6092ZM15.8988 35.6069L15.3697 36.4555L15.3698 36.4556L15.8988 35.6069ZM14.051 34.6393L13.7538 35.5941H13.7539L14.051 34.6393ZM11.8626 34.3586L11.8093 35.3571V35.3572L11.8626 34.3586ZM8.19257 33.4779L7.61972 34.2975L7.62023 34.2979L8.19257 33.4779ZM6.16031 30.3593L5.23248 30.7323L5.23259 30.7326L6.16031 30.3593ZM6.16014 30.3589L5.23203 30.7312L5.23231 30.7319L6.16014 30.3589ZM5.22717 28.4833L4.43063 29.0879L4.43118 29.0886L5.22717 28.4833ZM3.67088 27.075L3.05833 27.8654L3.05875 27.8657L3.67088 27.075ZM1.18484 24.2286L0.237621 24.5492H0.237629L1.18484 24.2286ZM1.44623 20.6037L0.482279 20.3376L0.482096 20.3383L1.44623 20.6037ZM1.44623 16.3997L0.48205 16.665L0.48228 16.6658L1.44623 16.3997ZM1.36861 16.1209L0.405668 16.3906L1.36861 16.1209ZM1.18484 12.7756L2.13569 13.0852L1.18484 12.7756ZM3.36483 10.1642L2.75834 9.36911L3.36483 10.1642ZM3.67008 9.93004L4.28302 10.7202L4.28351 10.7198L3.67008 9.93004ZM3.97364 9.69823L3.37027 8.90077L3.97364 9.69823ZM5.22717 8.51933L4.43029 7.91518L5.22717 8.51933ZM5.99176 7.12748L5.03708 6.82986H5.03707L5.99176 7.12748ZM6.16014 6.64373L7.08774 7.01731L7.08786 7.01701L6.16014 6.64373ZM6.25779 6.39935L7.18685 6.76927L6.25779 6.39935ZM8.19096 3.52713L8.77009 4.34237L8.19096 3.52713ZM11.4612 2.66339L11.4159 1.66441L11.4612 2.66339ZM11.8626 2.64403L11.8093 1.64545L11.8087 1.64548L11.8626 2.64403ZM12.2595 2.62612L12.3002 3.62529L12.2595 2.62612ZM14.0518 2.36333L14.3569 3.31567L14.0518 2.36333ZM15.6147 1.57563L16.1519 2.41903H16.152L15.6147 1.57563ZM15.9041 1.39256L16.4335 2.24091L16.4343 2.24045L15.9041 1.39256ZM23.0928 1.39176L22.5631 2.23994L22.5633 2.24011L23.0928 1.39176ZM24.9459 2.36253L25.2431 1.40772L25.2429 1.40768L24.9459 2.36253ZM27.1343 2.64322L27.1876 1.64464L27.1343 2.64322ZM30.8059 3.52633L30.233 4.34597L30.2336 4.34636L30.8059 3.52633ZM32.8351 6.63971L33.7629 6.26661L33.7628 6.26644L32.8351 6.63971ZM32.8367 6.64373L33.765 6.27198L33.7645 6.27064L32.8367 6.64373ZM33.7681 8.51852L32.9714 9.12302L32.9721 9.12394L33.7681 8.51852ZM35.322 9.92439L34.7092 10.7146L34.7097 10.715L35.322 9.92439ZM35.3251 9.92682L34.7128 10.7174L34.7129 10.7175L35.3251 9.92682ZM37.8128 12.7748L36.8655 13.0951L36.8657 13.0958L37.8128 12.7748ZM37.5506 16.3981L38.5145 16.6642L38.5146 16.6641L37.5506 16.3981ZM36.2894 23.7123L35.3424 23.391L35.3422 23.3917L36.2894 23.7123ZM34.3408 25.8026L33.7282 25.0122L33.7278 25.0125L34.3408 25.8026ZM35.9998 21.0308L36.9638 20.7646L36.9636 20.7638L35.9998 21.0308ZM35.9998 15.971L36.9639 16.2369V16.2368L35.9998 15.971ZM36.0028 15.9604L36.9668 16.2262L36.9669 16.2258L36.0028 15.9604ZM36.2894 13.2911L35.342 13.6111L35.3426 13.613L36.2894 13.2911ZM34.3442 11.201L34.9572 10.411L34.9569 10.4107L34.3442 11.201ZM34.3398 11.1976L33.7265 11.9874L33.7271 11.9879L34.3398 11.1976ZM34.3369 11.1953L34.9502 10.4055L34.9498 10.4052L34.3369 11.1953ZM32.4883 9.4909L33.2846 8.88594L33.2842 8.88543L32.4883 9.4909ZM31.3484 7.2543L32.2761 6.88092V6.88081L31.3484 7.2543ZM31.3438 7.24293L30.4159 7.61562L30.4162 7.61641L31.3438 7.24293ZM29.8849 4.84535L30.4576 4.02558L30.4572 4.02531L29.8849 4.84535ZM27.0482 4.25018L26.9942 5.24873L26.9951 5.24878L27.0482 4.25018ZM27.0384 4.24966L26.9844 5.2482H26.9845L27.0384 4.24966ZM24.468 3.89952L24.1708 4.85432V4.85434L24.468 3.89952ZM22.2417 2.75663L22.7719 1.90874L22.7714 1.90839L22.2417 2.75663ZM16.7626 2.75125L17.2914 3.59995L17.2915 3.59994L16.7626 2.75125ZM16.7565 2.75502L16.2277 1.90632L16.2271 1.9067L16.7565 2.75502ZM16.5355 2.89382L17.0685 3.73995V3.73994L16.5355 2.89382ZM14.5295 3.89791L14.2262 2.94501L14.5295 3.89791ZM12.2794 4.23299L12.2321 3.23411L12.2794 4.23299ZM11.9493 4.24938L12.0023 5.24797L12.0033 5.24792L11.9493 4.24938ZM9.11176 4.84375L9.68362 5.6641L9.68471 5.66334L9.11176 4.84375ZM7.6536 7.24132L8.58114 7.61503L8.58176 7.61349L7.6536 7.24132ZM7.64958 7.2513L6.72203 6.87759L7.64958 7.2513ZM6.5083 9.48929L5.71243 8.88382L5.71122 8.88542L6.5083 9.48929ZM4.65899 11.1961L4.04591 10.4061H4.04589L4.65899 11.1961ZM4.65603 11.1984L5.26865 11.9888L5.26913 11.9884L4.65603 11.1984ZM4.6544 11.1997L4.04178 10.4093L4.04142 10.4096L4.6544 11.1997ZM2.70886 13.2887L3.65586 13.6099L3.65608 13.6093L2.70886 13.2887ZM2.99759 15.9702L3.96185 15.7053L3.96153 15.7041L2.99759 15.9702ZM3.07302 16.2412L2.1101 16.511L3.07302 16.2412ZM3.45604 18.4997L4.45604 18.4996L3.45604 18.4997ZM3.07294 20.7593L2.11002 20.4895L3.07294 20.7593ZM2.99759 21.03L3.96173 21.2954L3.96185 21.2949L2.99759 21.03ZM2.99654 21.0338L2.0324 20.7684L2.99654 21.0338ZM2.70886 23.7123L3.65608 23.3917L3.65586 23.391L2.70886 23.7123ZM4.65243 25.7992L5.26568 25.0093L5.2654 25.0091L4.65243 25.7992ZM4.65683 25.8026L4.04358 26.5925L4.04396 26.5928L4.65683 25.8026ZM4.66113 25.8059L5.27421 25.0159L5.27401 25.0157L4.66113 25.8059ZM6.5091 27.5101L7.30589 26.9058L7.30536 26.9051L6.5091 27.5101ZM7.65279 29.7573L8.58069 29.3844H8.58067L7.65279 29.7573ZM9.11337 32.1572L8.54068 32.977L8.54127 32.9774L9.11337 32.1572ZM11.9485 32.7508L11.8955 33.7494L11.9485 32.7508ZM14.5303 33.1015L14.8287 32.147L14.8272 32.1466L14.5303 33.1015ZM16.7541 34.2436L17.2839 33.3954L17.2838 33.3953L16.7541 34.2436ZM22.2434 34.2436L22.7732 35.0917L22.7733 35.0916L22.2434 34.2436ZM24.468 33.1015L24.1703 32.1468L24.1693 32.1471L24.468 33.1015ZM27.0496 32.7508L27.1026 33.7494L27.1105 33.749L27.1184 33.7484L27.0496 32.7508ZM27.0498 32.7508L26.9967 31.7522L26.9888 31.7526L26.981 31.7532L27.0498 32.7508ZM29.8849 32.1572L29.3126 31.3372L29.8849 32.1572ZM31.3454 29.7565L30.4176 29.3836L30.4174 29.3839L31.3454 29.7565ZM32.4875 27.5101L31.6917 26.9045L31.6903 26.9064L32.4875 27.5101ZM34.3369 25.8057L33.7246 25.0151L33.7239 25.0155L34.3369 25.8057ZM34.3398 25.8034L34.9521 26.594L34.9528 26.5935L34.3398 25.8034ZM28.1125 12.5891L28.9362 12.0221L28.1255 10.8444L27.2973 12.0099L28.1125 12.5891ZM20.1525 23.7912L19.3373 23.212L19.3365 23.2132L20.1525 23.7912ZM19.5646 24.1266L19.4829 23.1299L19.4705 23.1309L19.458 23.1323L19.5646 24.1266ZM18.9284 23.8942L19.6374 23.1889L19.6355 23.187L18.9284 23.8942ZM14.1027 19.0684L14.8098 18.3613L14.1027 19.0684ZM14.1027 17.9312L13.3956 17.2241L14.1027 17.9312ZM15.2399 17.9312L15.947 17.2241L15.2399 17.9312ZM19.3924 22.0837L18.6853 22.7908L19.5221 23.6276L20.2076 22.663L19.3924 22.0837ZM27.0573 11.2974L27.8724 11.8767L28.3502 11.2044L27.7811 10.6074L27.0573 11.2974ZM38.5145 20.3368C38.2979 19.552 38.1493 18.9839 38.1493 18.5005H36.1493C36.1493 19.3087 36.3899 20.1562 36.5867 20.869L38.5145 20.3368ZM38.5159 20.3417L38.5154 20.3398L36.5858 20.866L36.5864 20.8679L38.5159 20.3417ZM38.7608 24.5484C39.2818 23.0092 38.827 21.4697 38.5151 20.3389L36.5871 20.8707C36.9328 22.1242 37.1573 23.0477 36.8664 23.9072L38.7608 24.5484ZM35.9386 27.8653C36.9055 27.1159 38.2255 26.1278 38.7607 24.5488L36.8665 23.9068C36.5572 24.8195 35.7781 25.4593 34.7133 26.2846L35.9386 27.8653ZM34.5648 29.0887C34.8419 28.7244 35.2981 28.3612 35.9381 27.8657L34.7138 26.2842C34.1362 26.7314 33.4422 27.2609 32.9729 27.8779L34.5648 29.0887ZM33.7696 30.722C34.0671 29.9821 34.2863 29.456 34.5658 29.0874L32.972 27.8792C32.4978 28.5047 32.1823 29.3084 31.914 29.9759L33.7696 30.722ZM33.7669 30.7288L33.7696 30.7221L31.914 29.9758L31.9113 29.9825L33.7669 30.7288ZM33.7648 30.734L33.767 30.7286L31.9112 29.9827L31.9091 29.9881L33.7648 30.734ZM31.3781 34.2971C32.7437 33.3442 33.3185 31.8439 33.7647 30.7341L31.9091 29.988C31.4221 31.1993 31.0314 32.1003 30.2336 32.657L31.3781 34.2971ZM27.1892 35.3564C28.4105 35.2912 30.0413 35.2302 31.3782 34.2971L30.2335 32.6571C29.4455 33.2071 28.4254 33.2876 27.0827 33.3592L27.1892 35.3564ZM25.2447 35.5933C25.7346 35.4407 26.3551 35.4008 27.1892 35.3564L27.0827 33.3592C26.3178 33.4 25.4262 33.4421 24.6502 33.6837L25.2447 35.5933ZM23.634 36.4514C24.3108 36.0294 24.8024 35.7307 25.2442 35.5934L24.6507 33.6835C23.9124 33.9129 23.1873 34.373 22.5757 34.7544L23.634 36.4514ZM23.6249 36.4571L23.6338 36.4516L22.576 34.7542L22.5671 34.7598L23.6249 36.4571ZM23.6222 36.4588L23.6255 36.4568L22.5665 34.7601L22.5632 34.7622L23.6222 36.4588ZM19.4984 37.999C21.199 37.999 22.6235 37.0816 23.6218 36.459L22.5636 34.762C21.474 35.4414 20.5327 35.999 19.4984 35.999V37.999ZM15.3799 36.4619C16.3768 37.0832 17.7994 37.999 19.4984 37.999V35.999C18.4653 35.999 17.5257 35.4426 16.4378 34.7646L15.3799 36.4619ZM15.3739 36.4581L15.3803 36.4621L16.4375 34.7644L16.4311 34.7604L15.3739 36.4581ZM15.3698 36.4556L15.3735 36.4579L16.4315 34.7606L16.4278 34.7583L15.3698 36.4556ZM13.7539 35.5941C14.1966 35.7319 14.6909 36.0322 15.3697 36.4555L16.428 34.7584C15.8145 34.3759 15.0871 33.9143 14.3481 33.6844L13.7539 35.5941ZM11.8093 35.3572C12.6434 35.4016 13.2639 35.4416 13.7538 35.5941L14.3483 33.6845C13.5722 33.4429 12.6806 33.4008 11.9158 33.36L11.8093 35.3572ZM7.62023 34.2979C8.95713 35.231 10.5889 35.292 11.8093 35.3571L11.9158 33.36C10.5738 33.2884 9.55293 33.2079 8.76491 32.6579L7.62023 34.2979ZM5.23259 30.7326C5.67943 31.8431 6.25482 33.3436 7.61972 34.2975L8.76542 32.6582C7.96705 32.1003 7.57566 31.198 7.08803 29.986L5.23259 30.7326ZM5.23231 30.7319L5.23248 30.7323L7.08814 29.9863L7.08797 29.9859L5.23231 30.7319ZM4.43118 29.0886C4.71344 29.4598 4.934 29.9882 5.23203 30.7312L7.08825 29.9866C6.81846 29.314 6.50175 28.5073 6.02316 27.878L4.43118 29.0886ZM3.05875 27.8657C3.69896 28.3613 4.15458 28.7242 4.43063 29.0879L6.02371 27.8787C5.55499 27.2612 4.86048 26.7312 4.28301 26.2842L3.05875 27.8657ZM0.237629 24.5492C0.771918 26.1276 2.09195 27.1165 3.05833 27.8654L4.28343 26.2845C3.21979 25.4603 2.44064 24.8196 2.13204 23.908L0.237629 24.5492ZM0.482096 20.3383C0.170831 21.4689 -0.283471 23.0097 0.237621 24.5492L2.13205 23.908C1.84081 23.0476 2.06533 22.1224 2.41036 20.8691L0.482096 20.3383ZM0.847564 18.5013C0.847564 18.9847 0.698929 19.5528 0.48228 20.3376L2.41018 20.8698C2.60693 20.157 2.84757 19.3095 2.84757 18.5013H0.847564ZM0.48228 16.6658C0.698993 17.4509 0.847564 18.0179 0.847564 18.5013H2.84757C2.84757 17.693 2.60686 16.8461 2.41018 16.1336L0.48228 16.6658ZM0.405668 16.3906C0.431638 16.4834 0.457026 16.574 0.48205 16.665L2.41041 16.1344C2.38396 16.0383 2.35733 15.9432 2.33156 15.8512L0.405668 16.3906ZM0.233983 12.4659C-0.275441 14.0302 0.106487 15.3224 0.405668 16.3906L2.33156 15.8512C2.02276 14.7487 1.83526 14.0078 2.13569 13.0852L0.233983 12.4659ZM2.75834 9.36911C1.86704 10.049 0.752769 10.8729 0.233983 12.4659L2.13569 13.0852C2.43885 12.1543 3.04718 11.6642 3.97132 10.9593L2.75834 9.36911ZM3.05713 9.13991C2.95892 9.2161 2.86021 9.2914 2.75834 9.36911L3.97132 10.9593C4.07216 10.8824 4.17732 10.8022 4.28302 10.7202L3.05713 9.13991ZM3.37027 8.90077C3.27367 8.97386 3.16794 9.05385 3.05664 9.14029L4.28351 10.7198C4.3833 10.6423 4.47925 10.5697 4.57702 10.4957L3.37027 8.90077ZM4.43029 7.91518C4.11085 8.33654 3.82903 8.55367 3.37027 8.90077L4.57702 10.4957C5.04518 10.1415 5.52392 9.78315 6.02405 9.12347L4.43029 7.91518ZM5.03707 6.82986C4.98051 7.01131 4.95062 7.10311 4.88579 7.23037C4.8162 7.36699 4.69182 7.57022 4.43029 7.91518L6.02405 9.12347C6.32415 8.72763 6.52442 8.41983 6.6679 8.13816C6.81614 7.84715 6.88774 7.61342 6.94644 7.4251L5.03707 6.82986ZM5.23254 6.27016C5.13851 6.50364 5.08118 6.68837 5.03708 6.82986L6.94644 7.4251C6.98902 7.28853 7.02618 7.17018 7.08774 7.01731L5.23254 6.27016ZM5.32873 6.02943C5.2963 6.11087 5.26452 6.19069 5.23242 6.27046L7.08786 7.01701C7.12153 6.93333 7.15464 6.85017 7.18685 6.76927L5.32873 6.02943ZM7.61183 2.71189C6.24254 3.68461 5.74948 4.9727 5.32873 6.02943L7.18685 6.76927C7.6201 5.68116 7.93746 4.93385 8.77009 4.34237L7.61183 2.71189ZM11.4159 1.66441C10.3016 1.71494 8.9549 1.75781 7.61183 2.71189L8.77009 4.34237C9.57869 3.76796 10.3597 3.71435 11.5065 3.66236L11.4159 1.66441ZM11.8087 1.64548C11.6789 1.65248 11.5494 1.65836 11.4159 1.66441L11.5064 3.66236C11.6386 3.65637 11.7766 3.65012 11.9164 3.64258L11.8087 1.64548ZM12.2188 1.62694C12.0924 1.63209 11.9549 1.63768 11.8093 1.64545L11.9158 3.64261C12.047 3.63562 12.1724 3.63049 12.3002 3.62529L12.2188 1.62694ZM13.7468 1.41099C13.2079 1.58358 12.8206 1.60243 12.2188 1.62694L12.3002 3.62529C12.9125 3.60034 13.5381 3.57791 14.3569 3.31567L13.7468 1.41099ZM15.0774 0.732239C14.5819 1.04787 14.2699 1.24345 13.7468 1.41099L14.3569 3.31567C15.1466 3.06273 15.6466 2.74098 16.1519 2.41903L15.0774 0.732239ZM15.3747 0.544208C15.269 0.61017 15.1694 0.673597 15.0774 0.73224L16.152 2.41903C16.2449 2.35978 16.3369 2.30121 16.4335 2.24091L15.3747 0.544208ZM19.4984 -0.998047C17.7967 -0.998047 16.3722 -0.0795148 15.3739 0.544673L16.4343 2.24045C17.5223 1.56009 18.464 1.00195 19.4984 1.00195V-0.998047ZM23.6225 0.543575C22.6247 -0.0795696 21.2 -0.998047 19.4984 -0.998047V1.00195C20.5331 1.00195 21.4746 1.56014 22.5631 2.23994L23.6225 0.543575ZM25.2429 1.40768C24.7992 1.26961 24.3028 0.968156 23.6222 0.543404L22.5633 2.24011C23.1792 2.62447 23.9086 3.08708 24.6488 3.31738L25.2429 1.40768ZM27.1876 1.64464C26.3535 1.60017 25.733 1.56024 25.2431 1.40772L24.6486 3.31733C25.4246 3.55891 26.3162 3.60102 27.0811 3.6418L27.1876 1.64464ZM31.3788 2.70669C30.041 1.77171 28.4086 1.7098 27.1876 1.64464L27.081 3.6418C28.4224 3.71338 29.4442 3.79463 30.233 4.34597L31.3788 2.70669ZM33.7628 6.26644C33.3165 5.15727 32.7417 3.65791 31.3782 2.70629L30.2336 4.34636C31.0295 4.90184 31.4201 5.80187 31.9073 7.01298L33.7628 6.26644ZM33.7645 6.27064L33.7629 6.26661L31.9073 7.0128L31.9089 7.01683L33.7645 6.27064ZM34.5647 7.91402C34.2828 7.5426 34.062 7.01352 33.765 6.27198L31.9084 7.01549C32.1776 7.68788 32.4941 8.49391 32.9714 9.12302L34.5647 7.91402ZM35.9348 9.13414C35.295 8.638 34.8405 8.27668 34.564 7.91311L32.9721 9.12394C33.4407 9.7399 34.1337 10.2683 34.7092 10.7146L35.9348 9.13414ZM35.9375 9.13623L35.9343 9.1338L34.7097 10.715L34.7128 10.7174L35.9375 9.13623ZM38.7601 12.4545C38.2258 10.8741 36.9046 9.88511 35.9374 9.13616L34.7129 10.7175C35.7773 11.5417 36.5569 12.1822 36.8655 13.0951L38.7601 12.4545ZM38.5146 16.6641C38.8267 15.5333 39.2813 13.9922 38.7599 12.4538L36.8657 13.0958C37.1566 13.9542 36.9325 14.879 36.5866 16.1321L38.5146 16.6641ZM38.1493 18.5005C38.1493 18.0171 38.2979 17.449 38.5145 16.6642L36.5867 16.132C36.3899 16.8448 36.1493 17.6923 36.1493 18.5005H38.1493ZM35.3422 23.3917C35.2808 23.573 35.1332 23.7977 34.838 24.0884C34.5425 24.3794 34.1721 24.6682 33.7282 25.0122L34.9534 26.593C35.3745 26.2666 35.8453 25.9034 36.2414 25.5134C36.6377 25.123 37.0319 24.6378 37.2366 24.0328L35.3422 23.3917ZM35.0359 21.297C35.1782 21.8121 35.2947 22.2392 35.3529 22.6227C35.4113 23.0071 35.3925 23.2432 35.3424 23.391L37.2364 24.0335C37.4348 23.4486 37.4096 22.8451 37.3303 22.3225C37.2508 21.7989 37.0983 21.2515 36.9638 20.7646L35.0359 21.297ZM34.5406 18.5013C34.5406 19.524 34.8152 20.5002 35.0361 21.2977L36.9636 20.7638C36.7309 19.9238 36.5406 19.2078 36.5406 18.5013H34.5406ZM35.0358 15.7052C34.8162 16.5015 34.5406 17.4786 34.5406 18.5013H36.5406C36.5406 17.7948 36.7315 17.0796 36.9639 16.2369L35.0358 15.7052ZM35.0387 15.6946L35.0358 15.7052L36.9639 16.2368L36.9668 16.2262L35.0387 15.6946ZM35.3426 13.613C35.3921 13.7587 35.4111 13.9926 35.3532 14.3751C35.2955 14.7567 35.1799 15.1817 35.0386 15.695L36.9669 16.2258C37.1004 15.7409 37.2519 15.1955 37.3308 14.6741C37.4094 14.1537 37.4343 13.5521 37.2362 12.9693L35.3426 13.613ZM33.7311 11.991C34.1744 12.335 34.544 12.6235 34.8388 12.9143C35.1331 13.2046 35.2805 13.4293 35.342 13.6111L37.2368 12.9711C37.0325 12.3661 36.6392 11.8809 36.2433 11.4904C35.8478 11.1004 35.3777 10.7373 34.9572 10.411L33.7311 11.991ZM33.7271 11.9879L33.7314 11.9913L34.9569 10.4107L34.9525 10.4073L33.7271 11.9879ZM33.7236 11.9852L33.7265 11.9874L34.9531 10.4077L34.9502 10.4055L33.7236 11.9852ZM31.6921 10.0959C32.2859 10.8775 33.0823 11.4877 33.7239 11.9855L34.9498 10.4052C34.2662 9.87488 33.6914 9.42142 33.2846 8.88594L31.6921 10.0959ZM30.4207 7.62767C30.7222 8.37664 31.0881 9.30191 31.6925 10.0964L33.2842 8.88543C32.8705 8.3417 32.5959 7.67551 32.2761 6.88092L30.4207 7.62767ZM30.4162 7.61641L30.4208 7.62778L32.2761 6.88081L32.2715 6.86944L30.4162 7.61641ZM29.3122 5.66513C29.48 5.78236 29.6556 5.98791 29.8482 6.33753C30.0426 6.69036 30.2128 7.10992 30.4159 7.61562L32.2718 6.87023C32.0792 6.39068 31.8641 5.85194 31.6 5.37254C31.3342 4.88993 30.9782 4.38931 30.4576 4.02558L29.3122 5.66513ZM26.9951 5.24878C27.561 5.27882 28.0392 5.30583 28.4579 5.3762C28.8767 5.44659 29.1431 5.54712 29.3126 5.6654L30.4572 4.02531C29.9398 3.66423 29.3407 3.49653 28.7894 3.40386C28.2379 3.31116 27.6412 3.28026 27.1012 3.25159L26.9951 5.24878ZM26.9845 5.2482L26.9942 5.24873L27.1021 3.25164L27.0924 3.25111L26.9845 5.2482ZM24.1708 4.85434C25.1316 5.15334 26.1483 5.203 26.9844 5.2482L27.0924 3.25111C26.2086 3.20334 25.447 3.15689 24.7652 2.94469L24.1708 4.85434ZM21.7116 3.60452C22.3972 4.03322 23.2356 4.56322 24.1708 4.85432L24.7652 2.94471C24.1192 2.74359 23.4986 2.36314 22.7719 1.90874L21.7116 3.60452ZM19.4983 2.61052C19.7487 2.61052 20.0472 2.68784 20.432 2.86809C20.8218 3.05067 21.2283 3.3028 21.7121 3.60487L22.7714 1.90839C22.3109 1.62091 21.7993 1.29999 21.2803 1.0569C20.7563 0.811482 20.1552 0.610522 19.4983 0.610522V2.61052ZM17.2915 3.59994C17.7738 3.29933 18.1789 3.04849 18.5675 2.86681C18.951 2.68749 19.2485 2.61052 19.4983 2.61052V0.610522C18.8429 0.610522 18.2431 0.810651 17.7204 1.05506C17.2027 1.29711 16.6925 1.61663 16.2337 1.90257L17.2915 3.59994ZM17.2854 3.60372L17.2914 3.59995L16.2337 1.90256L16.2277 1.90632L17.2854 3.60372ZM17.0685 3.73994C17.1415 3.69396 17.2132 3.64876 17.286 3.60334L16.2271 1.9067C16.1502 1.95466 16.075 2.00205 16.0025 2.0477L17.0685 3.73994ZM14.8327 4.85081C15.7988 4.54333 16.4529 4.12773 17.0685 3.73995L16.0025 2.0477C15.3904 2.43324 14.9258 2.72234 14.2262 2.94501L14.8327 4.85081ZM12.3267 5.23187C13.0581 5.19723 13.8522 5.1629 14.8327 4.85081L14.2262 2.94501C13.5198 3.16984 12.9604 3.19962 12.2321 3.23411L12.3267 5.23187ZM12.0033 5.24792C12.1111 5.24209 12.2176 5.23704 12.3267 5.23187L12.2321 3.23411C12.124 3.23923 12.0109 3.24459 11.8953 3.25084L12.0033 5.24792ZM9.68471 5.66334C9.85357 5.5453 10.1195 5.44495 10.5385 5.3748C10.9575 5.30466 11.4358 5.27805 12.0023 5.24797L11.8963 3.25079C11.357 3.27942 10.7599 3.30992 10.2083 3.40224C9.65678 3.49456 9.05682 3.66204 8.53882 4.02415L9.68471 5.66334ZM8.58176 7.61349C8.78479 7.10716 8.95499 6.68724 9.14919 6.33455C9.34168 5.98495 9.5169 5.78032 9.68362 5.6641L8.53991 4.02339C8.01897 4.38653 7.66295 4.88725 7.39721 5.36988C7.13317 5.84943 6.91811 6.38862 6.72543 6.86914L8.58176 7.61349ZM8.57712 7.62501L8.58114 7.61503L6.72605 6.86761L6.72203 6.87759L8.57712 7.62501ZM7.30416 10.0948C7.90874 9.30006 8.27551 8.37361 8.57712 7.62501L6.72203 6.87759C6.40203 7.67184 6.1265 8.33953 5.71243 8.88382L7.30416 10.0948ZM5.27206 11.9861C5.91431 11.4877 6.71207 10.8763 7.30537 10.0932L5.71122 8.88542C5.30548 9.42097 4.73051 9.87481 4.04591 10.4061L5.27206 11.9861ZM5.26913 11.9884L5.27208 11.9861L4.04589 10.4061L4.04293 10.4084L5.26913 11.9884ZM5.26702 11.99L5.26865 11.9888L4.04341 10.408L4.04178 10.4093L5.26702 11.99ZM3.65608 13.6093C3.71754 13.4277 3.86502 13.2031 4.15942 12.9129C4.45428 12.6223 4.82396 12.3338 5.26737 11.9898L4.04142 10.4096C3.62083 10.7359 3.15076 11.0989 2.75537 11.4886C2.35951 11.8789 1.96622 12.3637 1.76163 12.9681L3.65608 13.6093ZM3.96153 15.7041C3.81938 15.1892 3.70305 14.7621 3.64501 14.3787C3.58681 13.9944 3.60562 13.7581 3.65586 13.6099L1.76185 12.9675C1.56356 13.5521 1.58841 14.1555 1.66754 14.6781C1.74683 15.2018 1.89914 15.7491 2.03366 16.2363L3.96153 15.7041ZM4.03593 15.9714C4.01081 15.8817 3.98623 15.794 3.96185 15.7053L2.03333 16.2352C2.05926 16.3295 2.08519 16.4221 2.1101 16.511L4.03593 15.9714ZM4.45604 18.4996C4.45598 17.4571 4.23529 16.6828 4.03593 15.9713L2.1101 16.511C2.30866 17.2196 2.45599 17.7587 2.45604 18.4997L4.45604 18.4996ZM4.03585 21.0291C4.23526 20.3174 4.45609 19.5426 4.45604 18.4996L2.45604 18.4997C2.45608 19.2411 2.30863 19.7807 2.11002 20.4895L4.03585 21.0291ZM3.96185 21.2949C3.98621 21.2063 4.01076 21.1187 4.03586 21.0291L2.11002 20.4895C2.08514 20.5783 2.05923 20.6708 2.03333 20.765L3.96185 21.2949ZM3.96067 21.2992L3.96173 21.2954L2.03346 20.7645L2.0324 20.7684L3.96067 21.2992ZM3.65586 23.391C3.60579 23.2434 3.58698 23.0075 3.64507 22.6234C3.70301 22.2403 3.81904 21.8137 3.96067 21.2992L2.0324 20.7684C1.89855 21.2546 1.74664 21.8014 1.66755 22.3244C1.58862 22.8463 1.56371 23.4493 1.76185 24.0335L3.65586 23.391ZM5.2654 25.0091C4.82251 24.6655 4.45325 24.3773 4.1587 24.087C3.86461 23.7971 3.71739 23.5728 3.65608 23.3917L1.76163 24.0328C1.96609 24.6369 2.35917 25.1214 2.75468 25.5113C3.14974 25.9007 3.61938 26.2634 4.03946 26.5893L5.2654 25.0091ZM5.27008 25.0127L5.26568 25.0093L4.03918 26.5891L4.04358 26.5925L5.27008 25.0127ZM5.27401 25.0157L5.26971 25.0124L4.04396 26.5928L4.04826 26.5961L5.27401 25.0157ZM7.30536 26.9051C6.71193 26.124 5.91621 25.5141 5.27421 25.0159L4.04805 26.596C4.73206 27.1268 5.3063 27.5799 5.71284 28.115L7.30536 26.9051ZM8.58067 29.3844C8.27821 28.6317 7.91045 27.703 7.30589 26.9058L5.71231 28.1144C6.12758 28.6619 6.40485 29.3337 6.72492 30.1301L8.58067 29.3844ZM9.68607 31.3375C9.51825 31.2202 9.34238 31.0145 9.14943 30.6643C8.95476 30.3111 8.78415 29.8908 8.58069 29.3844L6.72489 30.1301C6.91794 30.6106 7.1334 31.1498 7.39777 31.6296C7.66387 32.1125 8.02003 32.6133 8.54068 32.977L9.68607 31.3375ZM12.0016 31.7522C11.4358 31.7222 10.9577 31.6953 10.5391 31.6252C10.1202 31.555 9.85425 31.4548 9.68548 31.3371L8.54127 32.9774C9.05856 33.3383 9.65768 33.5054 10.2086 33.5977C10.7597 33.69 11.3562 33.7207 11.8955 33.7494L12.0016 31.7522ZM14.8272 32.1466C13.8624 31.8466 12.8416 31.7968 12.0016 31.7522L11.8955 33.7494C12.7814 33.7965 13.5477 33.8432 14.2334 34.0564L14.8272 32.1466ZM17.2838 33.3953C16.6001 32.9685 15.7621 32.4388 14.8287 32.147L14.2319 34.0559C14.8781 34.2579 15.499 34.6388 16.2245 35.0918L17.2838 33.3953ZM19.4983 34.3905C19.2475 34.3905 18.9491 34.3131 18.5644 34.1329C18.1746 33.9502 17.7682 33.698 17.2839 33.3954L16.2243 35.0917C16.685 35.3795 17.1967 35.7007 17.7158 35.9439C18.24 36.1895 18.8411 36.3905 19.4983 36.3905V34.3905ZM21.7136 33.3954C21.2294 33.6979 20.8228 33.9502 20.4328 34.1328C20.0479 34.3131 19.7492 34.3905 19.4983 34.3905V36.3905C20.1555 36.3905 20.7568 36.1896 21.2811 35.944C21.8004 35.7007 22.3123 35.3796 22.7732 35.0917L21.7136 33.3954ZM24.1693 32.1471C23.2372 32.4388 22.3992 32.967 21.7134 33.3955L22.7733 35.0916C23.4983 34.6386 24.1208 34.2579 24.7667 34.0558L24.1693 32.1471ZM26.9965 31.7522C26.1575 31.7968 25.1357 31.8457 24.1703 32.1468L24.7658 34.0561C25.4506 33.8425 26.2158 33.7965 27.1026 33.7494L26.9965 31.7522ZM26.981 31.7532H26.9808L27.1184 33.7484H27.1186L26.981 31.7532ZM29.3126 31.3372C29.1434 31.4552 28.8776 31.5554 28.4591 31.6255C28.0405 31.6955 27.5628 31.7221 26.9967 31.7522L27.1028 33.7494C27.6418 33.7208 28.2382 33.6903 28.7892 33.598C29.3402 33.5058 29.9394 33.3386 30.4572 32.9773L29.3126 31.3372ZM30.4174 29.3839C30.2139 29.8909 30.0435 30.3112 29.849 30.6645C29.6562 31.0145 29.4805 31.22 29.3126 31.3372L30.4571 32.9773C30.9785 32.6135 31.3348 32.1124 31.6009 31.6292C31.8652 31.1493 32.0805 30.6097 32.2735 30.129L30.4174 29.3839ZM31.6903 26.9064C31.0868 27.7035 30.7199 28.6313 30.4176 29.3836L32.2733 30.1293C32.5935 29.3325 32.87 28.6615 33.2848 28.1137L31.6903 26.9064ZM33.7239 25.0155C33.0822 25.5134 32.2862 26.1234 31.6917 26.9045L33.2833 28.1157C33.6912 27.5797 34.2663 27.126 34.9498 26.5958L33.7239 25.0155ZM33.7275 25.0128L33.7246 25.0151L34.9492 26.5963L34.9521 26.594L33.7275 25.0128ZM33.7278 25.0125L33.7268 25.0133L34.9528 26.5935L34.9538 26.5927L33.7278 25.0125ZM19.497 5.43555C12.2925 5.43555 6.43269 11.2953 6.43269 18.4998H8.43269C8.43269 12.3999 13.397 7.43555 19.497 7.43555V5.43555ZM32.5613 18.4998C32.5613 11.2953 26.7015 5.43555 19.497 5.43555V7.43555C25.5969 7.43555 30.5613 12.3999 30.5613 18.4998H32.5613ZM19.497 31.5641C26.7015 31.5641 32.5613 25.7043 32.5613 18.4998H30.5613C30.5613 24.5998 25.5969 29.5641 19.497 29.5641V31.5641ZM6.43269 18.4998C6.43269 25.7043 12.2925 31.5641 19.497 31.5641V29.5641C13.397 29.5641 8.43269 24.5998 8.43269 18.4998H6.43269ZM19.497 27.9555C14.2842 27.9555 10.0413 23.7126 10.0413 18.4998H8.04126C8.04126 24.8172 13.1796 29.9555 19.497 29.9555V27.9555ZM28.9527 18.4998C28.9527 23.7126 24.7098 27.9555 19.497 27.9555V29.9555C25.8144 29.9555 30.9527 24.8172 30.9527 18.4998H28.9527ZM27.2888 13.1561C28.3369 14.6788 28.9527 16.5173 28.9527 18.4998H30.9527C30.9527 16.0958 30.2044 13.8646 28.9362 12.0221L27.2888 13.1561ZM20.9676 24.3704L28.9277 13.1684L27.2973 12.0099L19.3373 23.212L20.9676 24.3704ZM19.6462 25.1232C20.1771 25.0798 20.6612 24.803 20.9685 24.3692L19.3365 23.2132C19.3703 23.1654 19.4234 23.1348 19.4829 23.1299L19.6462 25.1232ZM19.497 25.1298C19.5411 25.1298 19.6021 25.1283 19.6711 25.1209L19.458 23.1323C19.4709 23.1309 19.4806 23.1303 19.4862 23.1301C19.492 23.1298 19.4957 23.1298 19.497 23.1298V25.1298ZM18.2194 24.5994C18.561 24.9428 19.0223 25.1298 19.497 25.1298V23.1298C19.547 23.1298 19.5982 23.1496 19.6373 23.1889L18.2194 24.5994ZM13.3956 19.7755L18.2213 24.6013L19.6355 23.187L14.8098 18.3613L13.3956 19.7755ZM13.3956 17.2241C12.6906 17.9291 12.6906 19.0706 13.3956 19.7756L14.8098 18.3613C14.8858 18.4374 14.8858 18.5622 14.8098 18.6383L13.3956 17.2241ZM15.947 17.2241C15.242 16.5191 14.1006 16.5191 13.3956 17.2241L14.8098 18.6383C14.7337 18.7143 14.6089 18.7143 14.5328 18.6383L15.947 17.2241ZM20.0995 21.3766L15.947 17.2241L14.5328 18.6383L18.6853 22.7908L20.0995 21.3766ZM26.2421 10.7182L18.5773 21.5045L20.2076 22.663L27.8724 11.8767L26.2421 10.7182ZM19.497 9.04412C22.1826 9.04412 24.606 10.1754 26.3335 11.9875L27.7811 10.6074C25.6963 8.4206 22.7582 7.04412 19.497 7.04412V9.04412ZM10.0413 18.4998C10.0413 13.287 14.2842 9.04412 19.497 9.04412V7.04412C13.1796 7.04412 8.04126 12.1824 8.04126 18.4998H10.0413Z" fill="#F1F542"/>
</g>
</svg>
