<svg width="41" height="41" viewBox="0 0 41 41" fill="none" xmlns="http://www.w3.org/2000/svg">
<path d="M11.9098 0H29.0901C35.6573 0 41 5.34273 41 11.9099V29.0901C41 35.6573 35.6573 41 29.0901 41H11.9099C5.34273 41 0 35.6573 0 29.0902V11.9099C0 5.34273 5.34273 0 11.9098 0ZM3.20312 29.0901C3.20312 33.8911 7.10893 37.7969 11.9098 37.7969H29.0901C33.8911 37.7969 37.7969 33.8911 37.7969 29.0902V11.9099C37.7969 7.10894 33.8911 3.20312 29.0901 3.20312H11.9099C7.10894 3.20312 3.20312 7.10894 3.20312 11.9099V29.0901Z" fill="#333333"/>
<path d="M20.5 9.44922C26.5935 9.44922 31.5508 14.4065 31.5508 20.5C31.5508 26.5935 26.5935 31.5508 20.5 31.5508C14.4065 31.5508 9.44922 26.5935 9.44922 20.5C9.44922 14.4065 14.4065 9.44922 20.5 9.44922ZM20.5 28.3477C24.8272 28.3477 28.3477 24.8272 28.3477 20.5C28.3477 16.1728 24.8272 12.6523 20.5 12.6523C16.1728 12.6523 12.6523 16.1728 12.6523 20.5C12.6523 24.8272 16.1728 28.3477 20.5 28.3477Z" fill="#333333"/>
<path d="M9.28906 10.8906C8.40454 10.8906 7.6875 10.1736 7.6875 9.28906C7.6875 8.40454 8.40454 7.6875 9.28906 7.6875C10.1736 7.6875 10.8906 8.40454 10.8906 9.28906C10.8906 10.1736 10.1736 10.8906 9.28906 10.8906Z" fill="#333333"/>
</svg>
