<svg width="33" height="33" viewBox="0 0 33 33" fill="none" xmlns="http://www.w3.org/2000/svg">
<g clip-path="url(#clip0)">
<path d="M9.58592 0H23.414C28.6998 0 33 4.30025 33 9.58598V23.414C33 28.6998 28.6998 33 23.414 33H9.58599C4.30025 33 0 28.6998 0 23.4141V9.58598C0 4.30025 4.30025 0 9.58592 0ZM2.57813 23.414C2.57813 27.2782 5.72183 30.4219 9.58592 30.4219H23.414C27.2782 30.4219 30.4219 27.2782 30.4219 23.4141V9.58598C30.4219 5.72183 27.2782 2.57812 23.414 2.57812H9.58599C5.72183 2.57812 2.57813 5.72183 2.57813 9.58598V23.414Z" fill="#D6DA14"/>
<path d="M16.5 7.60547C21.4045 7.60547 25.3945 11.5955 25.3945 16.5C25.3945 21.4045 21.4045 25.3945 16.5 25.3945C11.5955 25.3945 7.60547 21.4045 7.60547 16.5C7.60547 11.5955 11.5955 7.60547 16.5 7.60547ZM16.5 22.8164C19.9829 22.8164 22.8164 19.9829 22.8164 16.5C22.8164 13.0171 19.9829 10.1836 16.5 10.1836C13.0171 10.1836 10.1836 13.0171 10.1836 16.5C10.1836 19.9829 13.0171 22.8164 16.5 22.8164Z" fill="#D6DA14"/>
<path d="M7.47656 8.76562C6.76463 8.76562 6.1875 8.18849 6.1875 7.47656C6.1875 6.76463 6.76463 6.1875 7.47656 6.1875C8.18849 6.1875 8.76563 6.76463 8.76563 7.47656C8.76563 8.18849 8.18849 8.76562 7.47656 8.76562Z" fill="#D6DA14"/>
</g>
<defs>
<clipPath id="clip0">
<rect width="33" height="33" fill="white" transform="matrix(-1 0 0 1 33 0)"/>
</clipPath>
</defs>
</svg>
