<svg width="40" height="40" viewBox="0 0 40 40" fill="none" xmlns="http://www.w3.org/2000/svg">
<circle cx="20" cy="20" r="19.5" fill="#EBF005" stroke="black"/>
<g clip-path="url(#clip0)">
<path d="M14.2725 18.9773C14.2725 18.6884 14.0387 18.4546 13.7498 18.4546C13.4609 18.4546 13.2271 18.6884 13.2271 18.9773C13.2271 20.35 14.7411 22.2347 14.9137 22.4455C15.0173 22.5711 15.1674 22.6364 15.3185 22.6364C15.4349 22.6364 15.5523 22.5976 15.6497 22.518C15.8728 22.3347 15.905 22.0055 15.7222 21.7819C15.1618 21.0989 14.2725 19.7338 14.2725 18.9773Z" fill="black"/>
<path d="M25.2499 18.4546C24.961 18.4546 24.7272 18.6884 24.7272 18.9773C24.7272 19.7313 23.8379 21.0979 23.2774 21.7824C23.0947 22.0055 23.1273 22.3348 23.3505 22.518C23.4474 22.5976 23.5649 22.6364 23.6817 22.6364C23.8328 22.6364 23.9824 22.5711 24.086 22.4455C24.2586 22.2347 25.7727 20.35 25.7727 18.9773C25.7727 18.6884 25.5389 18.4546 25.2499 18.4546Z" fill="black"/>
<path d="M19.4998 18.4546C19.2109 18.4546 18.9771 18.6884 18.9771 18.9773V22.1137C18.9771 22.4026 19.2109 22.6364 19.4998 22.6364C19.7887 22.6364 20.0225 22.4026 20.0225 22.1137V18.9773C20.0225 18.6884 19.7887 18.4546 19.4998 18.4546Z" fill="black"/>
<path d="M25.25 10.0909C24.9332 10.0909 24.6022 10.1328 24.2584 10.1967C23.1071 8.85461 21.4029 8 19.5 8C17.5972 8 15.8929 8.85461 14.7416 10.1966C14.3978 10.1328 14.0668 10.0909 13.75 10.0909C10.5794 10.0909 8 12.6703 8 15.8409C8 18.0135 9.22514 19.9885 11.1486 20.9651L11.1384 28.8647C11.1379 29.4349 11.3594 29.9709 11.7622 30.3741C12.1655 30.778 12.701 31 13.2712 31H25.7309C26.907 31 27.8637 30.0434 27.8637 28.8672V20.9574C29.78 19.9783 31 18.0063 31 15.8409C31 12.6703 28.4206 10.0909 25.25 10.0909ZM26.8182 28.8673C26.8182 29.4666 26.3302 29.9546 25.7309 29.9546H13.2712C12.9807 29.9546 12.7076 29.8413 12.5019 29.6356C12.2966 29.4299 12.1833 29.1567 12.1838 28.8658L12.1866 26.8182H26.8182V28.8673ZM27.1418 20.1437C27.1142 20.1549 27.0882 20.1682 27.0637 20.184C26.9979 20.2249 26.9437 20.279 26.9034 20.3413C26.8626 20.403 26.835 20.4745 26.8238 20.5511C26.8192 20.5802 26.8177 20.6093 26.8181 20.6389V25.7727H12.1879L12.1946 20.646C12.1951 20.6174 12.1936 20.5883 12.1895 20.5602C12.1783 20.4811 12.1492 20.4076 12.1068 20.3438C12.0669 20.284 12.0149 20.232 11.9516 20.1921C11.9256 20.1758 11.898 20.1615 11.8694 20.1497C10.1537 19.3995 9.04544 17.7097 9.04544 15.8409C9.04544 13.2467 11.1558 11.1364 13.75 11.1364C13.8514 11.1364 13.9584 11.1486 14.0634 11.1569C13.5346 12.0761 13.2272 13.1382 13.2272 14.2727C13.2272 14.5617 13.4611 14.7955 13.75 14.7955C14.0389 14.7955 14.2727 14.5617 14.2727 14.2727C14.2727 11.3906 16.6179 9.04544 19.5 9.04544C22.3822 9.04544 24.7273 11.3906 24.7273 14.2727C24.7273 14.5617 24.9611 14.7955 25.25 14.7955C25.5389 14.7955 25.7728 14.5617 25.7728 14.2727C25.7728 13.1382 25.4654 12.0761 24.9366 11.1569C25.0416 11.1486 25.1486 11.1364 25.25 11.1364C27.8443 11.1364 29.9546 13.2467 29.9546 15.8409C29.9546 17.7031 28.8509 19.3907 27.1418 20.1437Z" fill="black"/>
</g>
<defs>
<clipPath id="clip0">
<rect width="23" height="23" fill="white" transform="translate(8 8)"/>
</clipPath>
</defs>
</svg>
