<svg width="13" height="11" viewBox="0 0 13 11" fill="none" xmlns="http://www.w3.org/2000/svg">
<g clip-path="url(#clip0)">
<path d="M11.413 0.553711H1.5897C0.712808 0.553711 0 1.26652 0 2.14341V8.85725C0 9.73414 0.712808 10.4469 1.5897 10.4469H11.4103C12.2872 10.4469 13 9.73414 13 8.85725V2.1461C13.0027 1.26921 12.2899 0.553711 11.413 0.553711ZM12.2764 8.85725C12.2764 9.33335 11.8891 9.72069 11.413 9.72069H1.5897C1.11359 9.72069 0.726257 9.33335 0.726257 8.85725V2.1461C0.726257 1.66999 1.11359 1.28266 1.5897 1.28266H11.4103C11.8864 1.28266 12.2737 1.66999 12.2737 2.1461V8.85725H12.2764Z" fill="black"/>
<path d="M8.19898 5.417L11.3784 2.56577C11.5263 2.43128 11.5398 2.20264 11.4053 2.05201C11.2708 1.90407 11.0421 1.89062 10.8915 2.02511L6.50707 5.96035L5.6517 5.19643C5.64901 5.19374 5.64632 5.19106 5.64632 5.18837C5.6275 5.16954 5.60867 5.1534 5.58715 5.13726L2.10649 2.02242C1.95586 1.88793 1.72723 1.90138 1.59274 2.05201C1.45824 2.20264 1.47169 2.43128 1.62232 2.56577L4.83937 5.44121L1.63577 8.44038C1.49052 8.57756 1.48245 8.8062 1.61963 8.95414C1.69226 9.02946 1.78909 9.0698 1.88593 9.0698C1.97469 9.0698 2.06346 9.03753 2.13339 8.97297L5.38541 5.93076L6.26768 6.71888C6.33761 6.78075 6.42369 6.81034 6.50976 6.81034C6.59584 6.81034 6.6846 6.77806 6.75185 6.71619L7.65832 5.90386L10.8915 8.97566C10.9614 9.04291 11.0529 9.07518 11.1417 9.07518C11.2385 9.07518 11.3326 9.03753 11.4053 8.96221C11.5425 8.81696 11.5371 8.58563 11.3918 8.44845L8.19898 5.417Z" fill="black"/>
</g>
<defs>
<clipPath id="clip0">
<rect width="13" height="11" fill="white"/>
</clipPath>
</defs>
</svg>
