<svg width="12" height="18" viewBox="0 0 12 18" fill="none" xmlns="http://www.w3.org/2000/svg">
<mask id="mask0" style="mask-type:alpha" maskUnits="userSpaceOnUse" x="0" y="0" width="12" height="17">
<path fill-rule="evenodd" clip-rule="evenodd" d="M5.80234 16.5067C5.9152 16.6162 6.0848 16.6162 6.19766 16.5067C7.23469 15.5006 12 10.7004 12 7.44991C12 3.80251 9.31371 0.845703 6 0.845703C2.68629 0.845703 0 3.80251 0 7.44991C0 10.7004 4.76531 15.5006 5.80234 16.5067ZM6 9.23693C7.2745 9.23693 8.30769 8.19335 8.30769 6.90604C8.30769 5.61872 7.2745 4.57514 6 4.57514C4.7255 4.57514 3.69231 5.61872 3.69231 6.90604C3.69231 8.19335 4.7255 9.23693 6 9.23693Z" fill="white"/>
</mask>
<g mask="url(#mask0)">
<path d="M6.19786 16.5062L5.64367 15.9234L6.19786 16.5062ZM11.2002 7.44936C11.2002 8.07892 10.964 8.85557 10.5258 9.72909C10.0934 10.591 9.49718 11.4832 8.85414 12.3263C7.5684 14.0122 6.15021 15.432 5.64367 15.9234L6.75204 17.0889C7.28253 16.5742 8.76552 15.0908 10.1217 13.3125C10.7996 12.4236 11.4595 11.4434 11.953 10.4595C12.4407 9.48739 12.8002 8.44508 12.8002 7.44936H11.2002ZM6.0002 1.6532C8.80875 1.6532 11.2002 4.18146 11.2002 7.44936H12.8002C12.8002 3.42246 9.81907 0.0371094 6.0002 0.0371094V1.6532ZM0.800195 7.44936C0.800195 4.18146 3.19165 1.6532 6.0002 1.6532V0.0371094C2.18133 0.0371094 -0.799805 3.42246 -0.799805 7.44936H0.800195ZM6.35673 15.9234C5.85019 15.432 4.432 14.0122 3.14626 12.3263C2.50322 11.4832 1.90698 10.591 1.4746 9.72909C1.03639 8.85557 0.800195 8.07892 0.800195 7.44936H-0.799805C-0.799805 8.44508 -0.440332 9.48739 0.0473614 10.4595C0.540882 11.4434 1.20079 12.4236 1.87871 13.3125C3.23488 15.0908 4.71787 16.5742 5.24836 17.0889L6.35673 15.9234ZM7.50788 6.90549C7.50788 7.74654 6.83288 8.42834 6.0002 8.42834V10.0444C7.71653 10.0444 9.10789 8.63908 9.10789 6.90549H7.50788ZM6.0002 5.38264C6.83288 5.38264 7.50788 6.06444 7.50788 6.90549H9.10789C9.10789 5.1719 7.71653 3.76655 6.0002 3.76655V5.38264ZM4.49251 6.90549C4.49251 6.06444 5.16752 5.38264 6.0002 5.38264V3.76655C4.28387 3.76655 2.89251 5.1719 2.89251 6.90549H4.49251ZM6.0002 8.42834C5.16752 8.42834 4.49251 7.74654 4.49251 6.90549H2.89251C2.89251 8.63908 4.28387 10.0444 6.0002 10.0444V8.42834ZM5.64367 15.9234C5.84043 15.7325 6.15997 15.7325 6.35673 15.9234L5.24836 17.0889C5.67082 17.4987 6.32958 17.4987 6.75204 17.0889L5.64367 15.9234Z" fill="black"/>
</g>
</svg>
