<svg width="33" height="33" viewBox="0 0 33 33" fill="none" xmlns="http://www.w3.org/2000/svg">
<path d="M16.5 0C10.1029 0 4.89844 5.20446 4.89844 11.6016C4.89844 13.7629 5.49714 15.8722 6.63023 17.7022L15.8396 32.543C16.016 32.8273 16.3268 33 16.6611 33C16.6636 33 16.6662 33 16.6687 33C17.0059 32.9974 17.3173 32.8193 17.4905 32.53L26.4652 17.5454C27.5357 15.7541 28.1016 13.6988 28.1016 11.6016C28.1016 5.20446 22.8971 0 16.5 0ZM24.8058 16.5527L16.6464 30.1761L8.27365 16.6834C7.33051 15.1603 6.81914 13.403 6.81914 11.6016C6.81914 6.27064 11.1691 1.9207 16.5 1.9207C21.8309 1.9207 26.1744 6.27064 26.1744 11.6016C26.1744 13.3496 25.6968 15.0619 24.8058 16.5527Z" fill="#D6DA14"/>
<path d="M16.5 5.80078C13.3014 5.80078 10.6992 8.40301 10.6992 11.6016C10.6992 14.7797 13.2591 17.4023 16.5 17.4023C19.7809 17.4023 22.3008 14.7447 22.3008 11.6016C22.3008 8.40301 19.6986 5.80078 16.5 5.80078ZM16.5 15.4816C14.3565 15.4816 12.6199 13.7393 12.6199 11.6016C12.6199 9.4692 14.3676 7.72148 16.5 7.72148C18.6324 7.72148 20.3736 9.4692 20.3736 11.6016C20.3736 13.7081 18.6775 15.4816 16.5 15.4816Z" fill="#D6DA14"/>
</svg>
