<svg width="30" height="34" viewBox="0 0 30 34" fill="none" xmlns="http://www.w3.org/2000/svg">
<g clip-path="url(#clip0)">
<path fill-rule="evenodd" clip-rule="evenodd" d="M18.241 0.233476L28.5444 5.81278C29.5625 6.38292 29.929 7.6454 29.3996 8.66352L25.8158 15.3017C26.1065 15.3663 26.3716 15.5141 26.5856 15.7173C26.6077 15.7383 26.6293 15.7598 26.6503 15.782C26.9387 16.0859 27.119 16.4954 27.119 16.9307V21.6954H27.8114C28.1778 21.6954 28.4629 21.9805 28.4629 22.3471V27.1933C28.4629 27.5599 28.1778 27.8449 27.8114 27.8449H27.119V32.0803C27.119 33.017 26.386 33.75 25.4493 33.75H2.03251C1.09584 33.75 0.362793 33.017 0.362793 32.0803V16.8899V13.9578C0.362793 13.021 1.09584 12.288 2.03251 12.288H9.36298L15.3902 1.0887C15.9197 0.111301 17.2636 -0.295947 18.241 0.233476ZM14.7794 15.2609L21.2139 3.32857L19.8293 2.59552L12.9467 15.2609H14.7794ZM17.6301 1.37377C17.2636 1.17015 16.7749 1.33305 16.5713 1.69957L9.24081 15.2609H11.4807L18.6482 1.94392L17.6301 1.37377ZM1.99178 13.5912C1.78816 13.5912 1.62526 13.7948 1.62526 13.917V15.2609C1.74743 15.2202 1.86961 15.2202 1.99178 15.2202H7.73399L8.62994 13.5912H1.99178ZM25.4086 32.4468C25.6122 32.4468 25.7751 32.2839 25.7751 32.0803V27.8449H23.2502C22.1913 27.8449 21.2954 26.9897 21.2954 25.8901V23.6502C21.2954 22.5914 22.1506 21.6954 23.2502 21.6954H25.7343V16.9307C25.7343 16.7271 25.5715 16.5641 25.3679 16.5641H24.6755H15.5124H10.7477H8.14124H1.99178C1.78816 16.5641 1.62526 16.7271 1.62526 16.9307V32.0803C1.62526 32.2839 1.78816 32.4468 1.99178 32.4468H25.4086ZM22.5986 25.8901C22.5986 26.2567 22.8836 26.5417 23.2502 26.5417H27.0782H27.119V22.9987H27.0782H23.2502C22.8836 22.9987 22.5986 23.2838 22.5986 23.6502V25.8901ZM24.309 15.2609L28.2186 8.01192C28.4222 7.6454 28.3 7.1567 27.8927 6.9938L22.3545 3.98029L16.2455 15.2609H24.309ZM25.731 7.40077L25.4051 7.23787C24.5906 6.78991 23.4911 7.1157 23.0431 7.9302L22.6358 8.70397C22.4322 9.11122 22.3508 9.59991 22.5136 10.0478C22.6358 10.4959 22.9616 10.8623 23.3688 11.066L23.6947 11.2289C23.939 11.3511 24.2241 11.4325 24.5092 11.4325C25.1608 11.4325 25.731 11.066 26.0567 10.5366L26.464 9.76284C26.8712 8.90759 26.5454 7.84875 25.731 7.40077ZM25.2829 9.15194L24.8757 9.92569C24.7535 10.1293 24.4684 10.2108 24.2648 10.0886L23.939 9.885C23.8576 9.84422 23.7761 9.72206 23.7354 9.64059C23.6947 9.51844 23.6947 9.39628 23.7761 9.31484L24.1833 8.54108C24.2648 8.4189 24.4277 8.29673 24.5906 8.29673C24.6721 8.29673 24.7128 8.29673 24.7942 8.33745L25.1201 8.50035C25.2829 8.66325 25.3644 8.90759 25.2829 9.15194Z" fill="#D8DC04"/>
</g>
<defs>
<clipPath id="clip0">
<rect width="30" height="33.75" fill="white"/>
</clipPath>
</defs>
</svg>
