<svg width="40" height="40" viewBox="0 0 40 40" fill="none" xmlns="http://www.w3.org/2000/svg">
<circle cx="20" cy="20" r="19.5" fill="#EBF005" stroke="black"/>
<g clip-path="url(#clip0)">
<path d="M31.682 20.0555L28.9889 18.0617C28.7453 17.8815 28.4192 17.8509 28.1451 17.9841C27.8719 18.1161 27.6988 18.3883 27.6988 18.6863V19.9062H26.9021V18.6733C26.9021 18.2402 26.5421 17.8891 26.0982 17.8891H24.4976V14.9774C24.4976 14.5443 24.1375 14.1932 23.6935 14.1932H21.1928V13.361H21.866C22.31 13.361 22.6701 13.0099 22.6701 12.5769C22.6701 12.1439 22.31 11.793 21.866 11.793H16.6715C16.2275 11.793 15.8675 12.1439 15.8675 12.5769C15.8675 13.0099 16.2275 13.361 16.6715 13.361H17.3452V14.1932H14.2368C13.7928 14.1932 13.4327 14.5443 13.4327 14.9774V16.5079H11.8624C11.4183 16.5079 11.0583 16.8589 11.0583 17.2919V19.0855H9.608V16.8609C9.608 16.4279 9.24799 16.0769 8.80396 16.0769C8.35992 16.0768 8 16.4279 8 16.8608V25.0617C8 25.4947 8.35992 25.8457 8.80404 25.8457C9.24807 25.8457 9.60808 25.4946 9.60808 25.0617V22.837H11.0584V24.6757C11.0584 25.1088 11.4184 25.4597 11.8625 25.4597H13.8845L16.7212 28.8663C16.8739 29.0496 17.1033 29.156 17.3453 29.156H26.0984C26.5424 29.156 26.9023 28.8048 26.9023 28.3719V27.336H27.699V28.3719C27.699 28.6782 27.8817 28.9561 28.1669 29.0843C28.2744 29.1324 28.3891 29.156 28.5029 29.156C28.6914 29.156 28.8775 29.0913 29.0263 28.9671L31.7196 26.7163C31.8978 26.5672 32.0002 26.3498 32.0002 26.1209V20.6798C32 20.4349 31.8822 20.2037 31.682 20.0555Z" fill="black"/>
</g>
<defs>
<clipPath id="clip0">
<rect width="24" height="23.4028" fill="white" transform="translate(8 12)"/>
</clipPath>
</defs>
</svg>
