<svg width="13" height="13" viewBox="0 0 13 13" fill="none" xmlns="http://www.w3.org/2000/svg">
<g clip-path="url(#clip0)">
<path d="M10.2764 8.05304C10.0102 7.77593 9.6892 7.62776 9.34898 7.62776C9.0115 7.62776 8.68774 7.77318 8.41062 8.0503L7.5436 8.91458C7.47226 8.87617 7.40092 8.8405 7.33233 8.80483C7.23356 8.75544 7.14027 8.7088 7.0607 8.65941C6.24855 8.14359 5.51049 7.47137 4.8026 6.60161C4.45963 6.1681 4.22916 5.80318 4.06179 5.43277C4.28678 5.22699 4.4953 5.01298 4.69834 4.8072C4.77517 4.73038 4.85199 4.65081 4.92881 4.57398C5.505 3.9978 5.505 3.2515 4.92881 2.67531L4.17977 1.92627C4.09472 1.84122 4.00692 1.75342 3.92461 1.66562C3.75998 1.49551 3.58713 1.31991 3.40878 1.15528C3.14264 0.891884 2.82437 0.751953 2.48963 0.751953C2.15489 0.751953 1.83113 0.891884 1.55676 1.15528C1.55402 1.15803 1.55402 1.15803 1.55127 1.16077L0.6184 2.10187C0.267202 2.45307 0.0669087 2.8811 0.0230088 3.37771C-0.0428409 4.17888 0.193121 4.92518 0.374207 5.41357C0.818693 6.61258 1.48268 7.7238 2.47317 8.91458C3.67493 10.3496 5.12088 11.4827 6.77261 12.2811C7.40367 12.5802 8.246 12.9342 9.1871 12.9945C9.24472 12.9973 9.30508 13 9.35995 13C9.99376 13 10.526 12.7723 10.9431 12.3196C10.9458 12.3141 10.9513 12.3113 10.9541 12.3058C11.0967 12.133 11.2614 11.9766 11.4342 11.8092C11.5522 11.6967 11.6729 11.5787 11.7909 11.4553C12.0625 11.1727 12.2052 10.8434 12.2052 10.5059C12.2052 10.1657 12.0598 9.83922 11.7827 9.56484L10.2764 8.05304ZM11.2586 10.9422C11.2559 10.9422 11.2559 10.9449 11.2586 10.9422C11.1516 11.0574 11.0419 11.1617 10.9239 11.2769C10.7455 11.4471 10.5645 11.6254 10.3943 11.8257C10.1172 12.122 9.79072 12.2619 9.3627 12.2619C9.32154 12.2619 9.27764 12.2619 9.23648 12.2592C8.42159 12.2071 7.66432 11.8888 7.09637 11.6172C5.54341 10.8654 4.17977 9.79806 3.04661 8.4454C2.11099 7.31772 1.48542 6.2751 1.07112 5.15566C0.815949 4.47246 0.722662 3.94018 0.763818 3.43807C0.791256 3.11706 0.914724 2.85091 1.14245 2.62318L2.07807 1.68757C2.21251 1.56136 2.35519 1.49276 2.49512 1.49276C2.66797 1.49276 2.8079 1.59702 2.8957 1.68482C2.89845 1.68757 2.90119 1.69031 2.90393 1.69306C3.0713 1.84945 3.23044 2.01133 3.39781 2.18419C3.48286 2.27199 3.57066 2.35978 3.65846 2.45033L4.4075 3.19937C4.69834 3.49021 4.69834 3.75909 4.4075 4.04993C4.32794 4.1295 4.25111 4.20906 4.17154 4.28589C3.94107 4.52185 3.72157 4.74135 3.48286 4.95536C3.47738 4.96085 3.47189 4.96359 3.46915 4.96908C3.23318 5.20504 3.27708 5.43552 3.32647 5.59191C3.32921 5.60014 3.33196 5.60837 3.3347 5.6166C3.52951 6.08853 3.80388 6.53301 4.22093 7.06255L4.22367 7.0653C4.98095 7.99817 5.77937 8.72526 6.66011 9.28224C6.77261 9.35358 6.88784 9.4112 6.99759 9.46607C7.09637 9.51546 7.18965 9.5621 7.26922 9.61149C7.2802 9.61698 7.29117 9.62521 7.30215 9.63069C7.39544 9.67734 7.48324 9.69929 7.57378 9.69929C7.80151 9.69929 7.94418 9.55661 7.99083 9.50997L8.92919 8.57161C9.02247 8.47832 9.17064 8.36583 9.34349 8.36583C9.5136 8.36583 9.65353 8.47284 9.73859 8.56612C9.74133 8.56887 9.74133 8.56887 9.74408 8.57161L11.2559 10.0834C11.5385 10.3633 11.5385 10.6514 11.2586 10.9422Z" fill="black"/>
<path d="M7.02755 3.09222C7.74641 3.21294 8.39942 3.55316 8.92073 4.07447C9.44204 4.59578 9.77952 5.2488 9.90299 5.96766C9.93317 6.14874 10.0896 6.27495 10.2679 6.27495C10.2899 6.27495 10.3091 6.27221 10.331 6.26947C10.534 6.23654 10.6685 6.04448 10.6356 5.84144C10.4874 4.97168 10.0758 4.17874 9.44753 3.55042C8.81921 2.9221 8.02627 2.51054 7.1565 2.36238C6.95347 2.32946 6.76415 2.4639 6.72848 2.66419C6.69281 2.86449 6.82451 3.05929 7.02755 3.09222Z" fill="black"/>
<path d="M12.9873 5.73457C12.7431 4.30234 12.0681 2.99907 11.031 1.96193C9.99387 0.9248 8.69059 0.24984 7.25836 0.00564704C7.05807 -0.0300216 6.86875 0.107165 6.83308 0.307458C6.80016 0.510495 6.9346 0.699813 7.13764 0.735482C8.41622 0.952237 9.58231 1.5586 10.5097 2.48324C11.4371 3.41063 12.0407 4.57672 12.2575 5.8553C12.2876 6.03639 12.444 6.1626 12.6224 6.1626C12.6443 6.1626 12.6635 6.15985 12.6855 6.15711C12.8858 6.12693 13.023 5.93487 12.9873 5.73457Z" fill="black"/>
</g>
<defs>
<clipPath id="clip0">
<rect width="13" height="13" fill="white"/>
</clipPath>
</defs>
</svg>
