<svg width="40" height="40" viewBox="0 0 40 40" fill="none" xmlns="http://www.w3.org/2000/svg">
<circle cx="20" cy="20" r="19.5" fill="#EBF005" stroke="black"/>
<g clip-path="url(#clip0)">
<path d="M25.3386 10H15.6615C14.7354 10 13.9878 10.6869 13.9878 11.5326V29.5078C13.9878 30.3527 14.7354 31.0389 15.6615 31.0389H25.3386C26.2631 31.0389 27.0124 30.3527 27.0124 29.5078V11.5326C27.0124 10.6869 26.2631 10 25.3386 10ZM18.1122 10.9307H22.8896C23.0103 10.9307 23.1083 11.0956 23.1083 11.2995C23.1083 11.5034 23.0103 11.669 22.8896 11.669H18.1122C17.9907 11.669 17.8943 11.5034 17.8943 11.2995C17.8943 11.0956 17.9907 10.9307 18.1122 10.9307ZM20.5009 29.5262C19.9117 29.5262 19.4323 29.0877 19.4323 28.548C19.4323 28.0082 19.9117 27.5712 20.5009 27.5712C21.0884 27.5712 21.5679 28.0082 21.5679 28.548C21.5679 29.0877 21.0884 29.5262 20.5009 29.5262ZM25.7585 26.1767H15.2425V12.586H25.7585V26.1767Z" fill="black"/>
</g>
<defs>
<clipPath id="clip0">
<rect width="23" height="21.0389" fill="white" transform="translate(9 10)"/>
</clipPath>
</defs>
</svg>
