<svg width="40" height="40" viewBox="0 0 40 40" fill="none" xmlns="http://www.w3.org/2000/svg">
<circle cx="20" cy="20" r="19.5" fill="#EBF005" stroke="black"/>
<path d="M21.2781 19.5045C21.5546 19.3631 21.8626 19.2883 22.1821 19.2883C22.7117 19.2883 23.2096 19.4939 23.5849 19.8673L24.3929 19.0594C26.3923 19.7603 28.7047 19.3116 30.3031 17.7133C31.648 16.3684 32.1784 14.518 31.8953 12.7739C31.8641 12.5818 31.7281 12.4234 31.5429 12.3636C31.3578 12.3037 31.1546 12.3524 31.0171 12.49L29.8174 13.6896C28.8405 14.6666 27.2564 14.6666 26.2795 13.6896C25.3025 12.7127 25.3025 11.1287 26.2795 10.1517L27.4791 8.95209C27.6168 8.81446 27.6658 8.61124 27.6059 8.42604C27.546 8.24076 27.3874 8.10509 27.1952 8.0739C25.4511 7.79077 23.6006 8.32116 22.2558 9.66604C20.6337 11.2882 20.1972 13.6455 20.9432 15.665L19.1909 17.4172L21.2781 19.5045Z" fill="black"/>
<path d="M18.0851 22.6795L16.0067 20.6011L8.73903 27.8687C7.79402 28.8137 7.79402 30.3458 8.73903 31.2908C9.68403 32.2358 11.2162 32.2358 12.1612 31.2908L18.4263 25.0257C17.7944 24.3904 17.6805 23.4313 18.0851 22.6795Z" fill="black"/>
<path d="M22.7207 20.7393C22.5721 20.5907 22.3772 20.5164 22.1824 20.5164C21.9877 20.5164 21.7928 20.5907 21.6442 20.7393L21.2103 21.1732L13.482 13.4448L13.8432 13.0836C14.1723 12.7545 14.1315 12.2087 13.7563 11.9324L10.6032 9.6102C10.3001 9.38709 9.87963 9.41877 9.61353 9.68487L8.27471 11.0238C8.00861 11.2899 7.97693 11.7105 8.20004 12.0134L10.5222 15.1666C10.7984 15.5416 11.344 15.5829 11.6733 15.2534L12.0346 14.8921L19.7629 22.6205L19.2986 23.0849C19.0013 23.3822 19.0013 23.8641 19.2986 24.1614L26.4282 31.291C27.3732 32.236 28.9053 32.236 29.8503 31.291C30.7953 30.346 30.7953 28.8139 29.8503 27.8689L22.7207 20.7393Z" fill="black"/>
</svg>
