<svg width="18" height="17" viewBox="0 0 18 17" fill="none" xmlns="http://www.w3.org/2000/svg">
<g clip-path="url(#clip0)">
<path d="M4.22813 16.0441C4.16853 16.0441 4.10893 16.0252 4.05884 15.9879C3.97016 15.922 3.92582 15.8105 3.94453 15.7002L4.83449 10.4006L1.06536 6.64777C0.987041 6.56953 0.958826 6.45276 0.992512 6.34658C1.02649 6.24011 1.1166 6.16246 1.22515 6.14628L6.43358 5.37301L8.76312 0.551332C8.81149 0.450739 8.91169 0.387207 9.0211 0.387207C9.1308 0.387207 9.23099 0.450739 9.27907 0.551332L11.6083 5.37301L16.817 6.14628C16.9256 6.16246 17.0154 6.23981 17.0497 6.34658C17.0834 6.45276 17.0554 6.56983 16.9768 6.64777L13.2077 10.4012L14.0974 15.7005C14.1158 15.8108 14.0715 15.9223 13.9831 15.9882C13.8944 16.0547 13.7766 16.0632 13.6796 16.0105L9.0211 13.5087L4.36201 16.0105C4.31998 16.0329 4.27391 16.0441 4.22813 16.0441ZM1.88506 6.64248L5.34468 10.0876C5.41234 10.155 5.44343 10.2526 5.42731 10.3479L4.61049 15.2123L8.88722 12.9157C8.971 12.8704 9.07091 12.8704 9.15527 12.9157L13.4314 15.2123L12.6149 10.3479C12.5988 10.2526 12.6299 10.1553 12.6975 10.0876L16.1571 6.64248L11.3763 5.93274C11.2824 5.91892 11.2015 5.85862 11.1595 5.77185L9.0211 1.34637L6.88273 5.77215C6.8407 5.85892 6.75979 5.91921 6.66593 5.93304L1.88506 6.64248Z" fill="#FFBF1C"/>
</g>
<defs>
<clipPath id="clip0">
<rect width="16.0851" height="16.4322" fill="white" transform="translate(0.978516)"/>
</clipPath>
</defs>
</svg>
