<svg width="33" height="33" viewBox="0 0 33 33" fill="none" xmlns="http://www.w3.org/2000/svg">
<path d="M16.5 33C25.5984 33 33 25.5984 33 16.5C33 7.40162 25.5984 0 16.5 0C7.40162 0 0 7.40162 0 16.5C0 25.5984 7.40162 33 16.5 33ZM16.5 2.0625C24.4613 2.0625 30.9375 8.53875 30.9375 16.5C30.9375 24.4613 24.4613 30.9375 16.5 30.9375C8.53875 30.9375 2.0625 24.4613 2.0625 16.5C2.0625 8.53875 8.53875 2.0625 16.5 2.0625Z" fill="#D6DA14"/>
<path d="M10.857 19.4631L13.013 18.5268L12.408 19.1331C12.2141 19.327 12.1055 19.5896 12.1055 19.8619V23.8975C12.1055 24.8215 13.222 25.2698 13.8655 24.6263L16.0297 22.462L20.746 24.8201C21.3565 25.1254 22.0948 24.7638 22.2213 24.0818L24.9122 9.28538C25.0538 8.48926 24.2701 7.84576 23.5207 8.14001L6.0362 14.9834C5.25245 15.2886 5.14795 16.3611 5.85745 16.8135L9.8917 19.3875C10.1805 19.5718 10.5448 19.6006 10.857 19.4631ZM22.5527 10.736L20.4393 22.3616L16.2868 20.2868C15.8853 20.086 15.4068 20.1699 15.0975 20.4806L14.168 21.4101V20.2923L18.3026 16.1576C19.1042 15.356 18.2022 14.0333 17.1627 14.4829L10.5393 17.3566L8.67758 16.1686L22.5527 10.736Z" fill="#D6DA14"/>
</svg>
