<svg width="30" height="30" viewBox="0 0 30 30" fill="none" xmlns="http://www.w3.org/2000/svg">
<path fill-rule="evenodd" clip-rule="evenodd" d="M26.3948 9.22408C28.3132 11.1426 29.5173 13.6834 29.7852 16.3785C30.0494 19.0362 29.3983 21.7264 27.952 23.9538C27.7767 24.2239 27.4158 24.3006 27.1457 24.1253C26.8758 23.95 26.799 23.589 26.9743 23.319C29.6814 19.1502 29.0909 13.5691 25.5705 10.0485C21.4342 5.91233 14.7041 5.91233 10.5679 10.0485C6.43175 14.1848 6.43175 20.9148 10.5679 25.051C14.0932 28.5762 19.679 29.1634 23.8499 26.4474C24.1196 26.2717 24.4808 26.348 24.6564 26.6178C24.8321 26.8875 24.7558 27.2486 24.4861 27.4243C22.5806 28.6652 20.335 29.3234 18.0605 29.3234C17.6757 29.3234 17.2904 29.3045 16.9053 29.2665C14.2075 29 11.664 27.7956 9.74362 25.8753C8.52785 24.6595 7.63428 23.2418 7.06248 21.7292H2.91438C2.59252 21.7292 2.33151 21.4682 2.33151 21.1463C2.33151 20.8244 2.59252 20.5635 2.91438 20.5635H6.69048C6.49703 19.828 6.37573 19.0775 6.32654 18.323H3.73041C3.40855 18.323 3.14753 18.0621 3.14753 17.7402C3.14753 17.4182 3.40855 17.1573 3.73041 17.1573H6.30795C6.33283 16.4048 6.42924 15.6543 6.59722 14.9168H0.582876C0.261012 14.9168 0 14.6559 0 14.334C0 14.0121 0.261012 13.7512 0.582876 13.7512H6.92661C7.1889 12.9776 7.5335 12.2262 7.96085 11.5108H4.55617C4.2343 11.5108 3.97329 11.2498 3.97329 10.9279C3.97329 10.606 4.2343 10.345 4.55617 10.345H8.70977C8.72469 10.345 8.73938 10.3462 8.754 10.3472C9.056 9.95716 9.38585 9.58185 9.74362 9.22408C11.3785 7.58926 13.3786 6.53717 15.4836 6.06673V4.58162C14.6213 4.367 13.9802 3.58636 13.9802 2.65853C13.9802 1.56576 14.8692 0.676758 15.962 0.676758H20.1587C21.2515 0.676758 22.1405 1.56576 22.1405 2.65853C22.1405 3.58642 21.4995 4.36706 20.637 4.58162V6.06259C22.7485 6.53105 24.7553 7.58459 26.3948 9.22408ZM15.962 1.84257C15.512 1.84257 15.146 2.20862 15.146 2.65859C15.146 3.10852 15.512 3.47462 15.962 3.47462H16.0665H20.0542H20.1587C20.6087 3.47462 20.9748 3.10857 20.9748 2.65859C20.9748 2.20862 20.6087 1.84257 20.1587 1.84257H15.962ZM16.6494 4.64037V5.86633C17.5862 5.75349 18.5342 5.75279 19.4712 5.86424V4.64037H16.6494ZM25.5705 25.0505C25.6788 24.9421 25.8286 24.8798 25.9825 24.8798C26.1358 24.8798 26.2856 24.9421 26.3946 25.0505C26.5031 25.1589 26.5654 25.3093 26.5654 25.4626C26.5654 25.6159 26.503 25.7663 26.3946 25.8747C26.2856 25.9837 26.1358 26.0455 25.9825 26.0455C25.8287 26.0455 25.6788 25.9837 25.5705 25.8747C25.4615 25.7663 25.3996 25.6159 25.3996 25.4626C25.3996 25.3093 25.4615 25.1589 25.5705 25.0505ZM9.02646 17.5494C9.02646 12.5635 13.0828 8.50731 18.0685 8.50731C23.0543 8.50731 27.1106 12.5635 27.1106 17.5494C27.1106 22.5352 23.0543 26.5915 18.0685 26.5915C13.0828 26.5915 9.02646 22.5352 9.02646 17.5494ZM10.1922 17.5494C10.1922 21.8924 13.7255 25.4257 18.0685 25.4257C22.4116 25.4257 25.9449 21.8924 25.9449 17.5494C25.9449 13.2064 22.4116 9.673 18.0685 9.673C13.7255 9.673 10.1922 13.2064 10.1922 17.5494ZM18.8692 15.9249L21.7562 13.038C21.9839 12.8104 22.3529 12.8104 22.5805 13.038C22.8082 13.2656 22.8082 13.6347 22.5805 13.8623L22.4958 13.947L19.6936 16.7492C19.8129 16.9906 19.8804 17.2622 19.8804 17.5492C19.8804 18.5479 19.0679 19.3605 18.0692 19.3605C17.0704 19.3605 16.2579 18.5479 16.2579 17.5492C16.2579 17.2622 16.3253 16.9906 16.4448 16.7492L15.1527 15.4572C14.9251 15.2295 14.9251 14.8605 15.1527 14.6328C15.3804 14.4052 15.7494 14.4052 15.9771 14.6328L17.2691 15.9249C17.5105 15.8055 17.782 15.7381 18.0692 15.7381C18.3562 15.7381 18.6278 15.8055 18.8692 15.9249ZM17.4237 17.5493C17.4237 17.9052 17.7132 18.1948 18.0692 18.1948C18.4251 18.1948 18.7146 17.9052 18.7146 17.5493C18.7146 17.1934 18.4251 16.9038 18.0692 16.9038C17.7132 16.9038 17.4237 17.1934 17.4237 17.5493ZM24.8848 17.5569C24.8848 17.235 24.6238 16.9741 24.302 16.9741H23.7619C23.4401 16.9741 23.1791 17.235 23.1791 17.5569C23.1791 17.8788 23.4401 18.1398 23.7619 18.1398H24.302C24.6238 18.1398 24.8848 17.8788 24.8848 17.5569ZM12.9587 17.5427C12.9587 17.2208 12.6977 16.9598 12.3758 16.9598H11.8358C11.514 16.9598 11.253 17.2208 11.253 17.5427C11.253 17.8646 11.514 18.1255 11.8358 18.1255H12.3758C12.6977 18.1255 12.9587 17.8646 12.9587 17.5427ZM18.0768 12.4403C18.3987 12.4403 18.6597 12.1794 18.6597 11.8575V11.3175C18.6597 10.9955 18.3987 10.7346 18.0768 10.7346C17.755 10.7346 17.494 10.9955 17.494 11.3175V11.8575C17.494 12.1794 17.755 12.4403 18.0768 12.4403ZM18.0618 22.6585C17.74 22.6585 17.479 22.9194 17.479 23.2413V23.7812C17.479 24.1032 17.74 24.3642 18.0618 24.3642C18.3837 24.3642 18.6447 24.1032 18.6447 23.7812V23.2413C18.6447 22.9194 18.3837 22.6585 18.0618 22.6585ZM0.582867 20.5633C0.429573 20.5633 0.279193 20.6257 0.17078 20.7341C0.0623668 20.8425 0 20.9929 0 21.1462C0 21.3001 0.0623085 21.4499 0.17078 21.5583C0.279252 21.6667 0.429573 21.7291 0.582867 21.7291C0.736161 21.7291 0.886538 21.6667 0.994892 21.5583C1.10331 21.4499 1.16573 21.2995 1.16573 21.1462C1.16573 20.9929 1.10337 20.8425 0.994892 20.7341C0.886538 20.6257 0.736161 20.5633 0.582867 20.5633Z" fill="#D6DA04"/>
</svg>
