<svg width="40" height="40" viewBox="0 0 40 40" fill="none" xmlns="http://www.w3.org/2000/svg">
<circle cx="20" cy="20" r="19.5" fill="#EBF005" stroke="black"/>
<g clip-path="url(#clip0)">
<path d="M26.875 9H13.125C12.0588 9 11.1914 9.86741 11.1914 10.9336V13.3714H28.8086V10.9336C28.8086 9.86741 27.9412 9 26.875 9ZM22.3633 11.8359C22.0073 11.8359 21.7188 11.5474 21.7188 11.1914C21.7188 10.8355 22.0073 10.5469 22.3633 10.5469C22.7192 10.5469 23.0078 10.8355 23.0078 11.1914C23.0078 11.5474 22.7192 11.8359 22.3633 11.8359ZM24.9414 11.8359C24.5855 11.8359 24.2969 11.5474 24.2969 11.1914C24.2969 10.8355 24.5855 10.5469 24.9414 10.5469C25.2974 10.5469 25.5859 10.8355 25.5859 11.1914C25.5859 11.5474 25.2974 11.8359 24.9414 11.8359Z" fill="black"/>
<path d="M11.1914 14.6606V29.0666C11.1914 30.1328 12.0588 31.0002 13.125 31.0002H26.875C27.9412 31.0002 28.8086 30.1328 28.8086 29.0666V14.6606H11.1914ZM19.9999 27.7775C16.9198 27.7775 14.414 25.2717 14.414 22.1916C14.414 19.1115 16.9198 16.6057 19.9999 16.6057C23.08 16.6057 25.5859 19.1115 25.5859 22.1916C25.5859 25.2717 23.08 27.7775 19.9999 27.7775Z" fill="black"/>
<path d="M19.9999 19.1836C18.3414 19.1836 16.9922 20.5329 16.9922 22.1914C16.9922 23.85 18.3414 25.1992 19.9999 25.1992C21.6583 25.1992 23.0076 23.85 23.0076 22.1914C23.0076 20.5329 21.6584 19.1836 19.9999 19.1836Z" fill="black"/>
</g>
<defs>
<clipPath id="clip0">
<rect width="22" height="22" fill="white" transform="translate(9 9)"/>
</clipPath>
</defs>
</svg>
