<svg width="35" height="32" viewBox="0 0 35 32" fill="none" xmlns="http://www.w3.org/2000/svg">
<path d="M17.5054 31.9956H-0.000488281L2.79973 24.6669C0.973101 22.0831 0.0112656 19.101 0.0112656 16.001C0.0112656 11.7287 1.831 7.71207 5.13513 4.69102C8.43933 1.67004 12.8325 0.00634766 17.5054 0.00634766C22.1782 0.00634766 26.5714 1.6701 29.8756 4.69102C33.1798 7.71207 34.9995 11.7287 34.9995 16.001C34.9995 20.2733 33.1798 24.2899 29.8756 27.3109C26.5714 30.3318 22.1782 31.9956 17.5054 31.9956ZM3.84986 29.4964H17.5054C25.6445 29.4964 32.2661 23.4424 32.2661 16.001C32.2661 8.55954 25.6445 2.50551 17.5054 2.50551C9.36632 2.50551 2.74472 8.55954 2.74472 16.001C2.74472 18.8011 3.67437 21.4867 5.43301 23.7674L5.83811 24.2927L3.84986 29.4964ZM20.1154 25.2478C20.0693 25.2478 20.0234 25.2476 19.9768 25.2472C17.1742 25.2246 14.3467 23.9272 11.573 21.3913C8.82366 18.8776 7.41709 16.3037 7.39235 13.7415C7.37656 12.1131 7.58403 9.73933 9.55923 7.93337C10.3829 7.18031 11.42 6.76152 12.4796 6.75421L12.5092 6.75408H12.5168C13.8226 6.75408 15.0364 7.40724 15.6832 8.46013L16.3165 9.49616C16.6152 10.0652 17.5222 11.7926 16.0588 13.1509L15.4435 13.7477C15.7366 14.4005 16.3105 15.4483 17.2661 16.3237C18.1914 17.168 19.2817 17.6697 19.9846 17.931L20.6072 17.3266C22.1594 15.9102 24.0397 16.8012 24.6576 17.094L24.6981 17.1139L25.7533 17.6559C26.9069 18.2483 27.6218 19.3613 27.6192 20.5604L27.619 20.5884C27.6111 21.5535 27.1531 22.5018 26.3294 23.255C24.8634 24.5953 22.8295 25.2478 20.1154 25.2478ZM12.4989 9.2533C12.303 9.25493 11.9132 9.31547 11.4921 9.70053C10.5417 10.5694 10.1075 11.8465 10.1256 13.7194C10.1438 15.6034 11.281 17.59 13.5057 19.6241C15.052 21.0378 17.434 22.7275 20.0009 22.7482C22.0422 22.7658 23.4379 22.3642 24.3964 21.4878C24.8186 21.1018 24.8841 20.7446 24.8856 20.5661L24.8857 20.5513C24.8863 20.2605 24.7058 19.9844 24.4145 19.8348L23.3803 19.3036C22.8384 19.049 22.6392 19.044 22.6025 19.0457C22.5943 19.0503 22.5766 19.0617 22.5495 19.0853L20.8214 20.7652L20.0432 20.5869C19.9356 20.5623 17.3827 19.9611 15.3332 18.0908C13.294 16.2229 12.5863 13.868 12.5571 13.7687L12.3597 13.0953L14.1086 11.3996C14.1245 11.3851 14.1329 11.3751 14.1368 11.3702C14.1423 11.3352 14.1498 11.1528 13.8703 10.6123L13.3 9.68403C13.1366 9.41819 12.8356 9.25324 12.514 9.25324C12.5133 9.25324 12.5127 9.25324 12.5121 9.25324L12.4989 9.2533Z" fill="#D6DA14"/>
</svg>
