<svg width="30" height="30" viewBox="0 0 30 30" fill="none" xmlns="http://www.w3.org/2000/svg">
<g clip-path="url(#clip0)">
<path d="M17.7555 3.60826C17.4404 3.53238 17.1244 3.72603 17.0486 4.04056C16.9727 4.35515 17.1663 4.67167 17.4809 4.74749C22.23 5.89235 25.5468 10.1084 25.5468 15.0001C25.5468 20.8157 20.8155 25.547 15 25.547C9.18437 25.547 4.45312 20.8157 4.45312 15.0001C4.45312 10.1086 7.76975 5.89253 12.5186 4.74755C12.8332 4.67167 13.0268 4.35515 12.9509 4.04062C12.8751 3.72603 12.5584 3.53261 12.244 3.60832C9.73152 4.21412 7.45522 5.66647 5.83446 7.69785C4.16414 9.79134 3.28125 12.3164 3.28125 15.0001C3.28125 21.4618 8.53826 26.7188 15 26.7188C21.4616 26.7188 26.7187 21.4619 26.7187 15.0001C26.7187 12.3164 25.8358 9.79122 24.1653 7.69768C22.5445 5.66636 20.2681 4.214 17.7555 3.60826Z" fill="#F0F405"/>
<path d="M29.6465 13.5906L28.961 12.3117L29.0753 10.7306C29.1852 9.71721 28.781 8.72815 27.9925 8.08315L26.8547 7.1514L26.4071 5.80304C26.1564 4.77209 25.3734 3.94346 24.3575 3.63661L22.953 3.21227L21.8773 1.96892C21.2409 1.22027 20.2775 0.830856 19.3002 0.926891L17.8424 1.07214L16.4094 0.35326C15.5263 -0.117539 14.4734 -0.117949 13.5901 0.353202L12.3113 1.03863L10.7302 0.924254C9.7164 0.814333 8.72769 1.21863 8.08275 2.007L7.15094 3.14489L5.80264 3.59249C4.77163 3.84315 3.943 4.62613 3.63615 5.64197L3.21187 7.04652L1.96852 8.12223C1.21993 8.75868 0.83028 9.72184 0.926432 10.6993L1.07169 12.1571L0.352801 13.5901C-0.118056 14.4733 -0.118408 15.5262 0.352684 16.4095L1.03817 17.6883L0.923795 19.2694C0.813932 20.2829 1.21817 21.2718 2.00654 21.9169L3.14443 22.8487L3.59203 24.197C3.84263 25.228 4.62562 26.0566 5.64157 26.3635L7.04606 26.7877L8.12177 28.0311C8.75828 28.7797 9.7212 29.1694 10.6988 29.0732L12.1566 28.9279L13.5895 29.6467C14.0312 29.8822 14.5154 30.0001 14.9997 30.0001C15.4835 30.0001 15.9674 29.8824 16.4089 29.6469L17.6878 28.9615L19.2688 29.0759C20.2822 29.1855 21.2713 28.7815 21.9164 27.9931L22.8481 26.8552L24.1966 26.4077C25.2274 26.157 26.056 25.374 26.3629 24.3581L26.7872 22.9537L28.0306 21.8779C28.7792 21.2415 29.1689 20.2783 29.0727 19.3008L28.9274 17.8431L29.6462 16.4101C30.1171 15.5269 30.1175 14.4739 29.6465 13.5906ZM28.6096 15.8633C28.6071 15.8681 28.6045 15.8729 28.6021 15.8777L27.8037 17.4694C27.754 17.5685 27.7334 17.6798 27.7444 17.7902L27.9065 19.4162C27.965 20.0107 27.7276 20.5973 27.2677 20.9883L25.8921 22.1785C25.8082 22.2511 25.7466 22.3459 25.7146 22.4521L25.2411 24.0192C25.0524 24.644 24.5396 25.1244 23.903 25.2729C23.8856 25.2769 23.8684 25.2818 23.8514 25.2874L22.3178 25.7964C22.2125 25.8314 22.1193 25.8955 22.049 25.9813L21.0096 27.2508C20.6148 27.7334 20.0083 27.9798 19.3877 27.91C19.3799 27.9091 19.3721 27.9084 19.3645 27.9078L17.603 27.7804C17.4921 27.7724 17.3817 27.796 17.284 27.8484L15.8564 28.6135C15.3181 28.9006 14.675 28.8994 14.1363 28.6102C14.1315 28.6076 14.1267 28.6051 14.1219 28.6027L12.5302 27.8043C12.4484 27.7633 12.3584 27.7421 12.2675 27.7421C12.2482 27.7421 12.2288 27.743 12.2094 27.745L10.5834 27.907C9.98892 27.9657 9.40234 27.7281 9.01128 27.2683L7.82113 25.8926C7.74859 25.8087 7.65367 25.7471 7.54744 25.7151L5.98036 25.2417C5.35546 25.0529 4.87511 24.5402 4.72669 23.9035C4.72265 23.8861 4.71778 23.8689 4.71216 23.852L4.20316 22.3183C4.16824 22.213 4.10413 22.1198 4.01829 22.0496L2.74887 21.0101C2.26629 20.6153 2.01985 20.0089 2.08969 19.3882C2.09057 19.3805 2.09127 19.3727 2.09186 19.3649L2.21924 17.6034C2.22727 17.4928 2.20365 17.3822 2.15127 17.2844L1.3861 15.8569C1.09899 15.3186 1.10022 14.6756 1.38938 14.1368C1.39196 14.1321 1.39442 14.1272 1.39682 14.1224L2.19522 12.5308C2.24496 12.4316 2.26553 12.3203 2.25451 12.21L2.0925 10.5839C2.03403 9.98932 2.27139 9.40279 2.73129 9.01174L4.10695 7.82159C4.19085 7.74899 4.25238 7.65413 4.28449 7.54796L4.75792 5.98082C4.94665 5.35597 5.4594 4.87563 6.09608 4.72715C6.11348 4.72311 6.13065 4.71824 6.14764 4.71262L7.68121 4.20356C7.7865 4.16864 7.87967 4.10453 7.94992 4.01869L8.98949 2.74921C9.38429 2.26669 9.99079 2.02036 10.6114 2.09009C10.6191 2.09097 10.6268 2.09167 10.6346 2.09226L12.396 2.21964C12.5063 2.22749 12.6172 2.20405 12.715 2.15167L14.1426 1.38656C14.6809 1.09945 15.3239 1.10062 15.8626 1.38984C15.8674 1.39236 15.8722 1.39488 15.877 1.39728L17.4687 2.19567C17.5679 2.24542 17.6791 2.26605 17.7895 2.25497L19.4156 2.09296C20.01 2.03437 20.5966 2.27185 20.9877 2.73175L22.1778 4.10741C22.2504 4.19131 22.3453 4.25283 22.4515 4.28494L24.0186 4.75838C24.6434 4.94711 25.1238 5.45992 25.2723 6.09654C25.2763 6.11394 25.2812 6.13111 25.2868 6.1481L25.7959 7.68167C25.8308 7.78696 25.8949 7.88013 25.9807 7.95038L27.2502 8.98989C27.7328 9.38469 27.9792 9.99096 27.9093 10.6118C27.9085 10.6195 27.9078 10.6272 27.9072 10.635L27.7798 12.3965C27.7718 12.5071 27.7954 12.6178 27.8478 12.7156L28.6129 14.1431C28.9001 14.6815 28.8989 15.3245 28.6096 15.8633Z" fill="#F0F405"/>
<path d="M12.4575 11.8078C12.3635 11.6098 12.1622 11.4725 11.9284 11.4725H8.83252C8.50891 11.4725 8.24658 11.7348 8.24658 12.0585V20.9275C8.24658 21.2511 8.50891 21.5135 8.83252 21.5135H11.9284C12.1713 21.5135 12.3796 21.3657 12.4684 21.1552C12.9151 21.2179 13.3752 21.3449 13.8543 21.4776C14.5745 21.677 15.3192 21.8832 16.0929 21.8832H19.4754C20.5211 21.8832 21.3684 21.3288 21.7421 20.4002C21.9241 19.9477 21.9559 19.4781 21.8496 19.085C22.0441 18.9101 22.2085 18.6924 22.3329 18.4382C22.5849 17.923 22.6352 17.3437 22.4924 16.8558C22.7586 16.5986 22.9572 16.2589 23.0611 15.8584C23.1582 15.484 23.1565 15.1146 23.0701 14.7945C23.5986 14.4836 23.9546 13.9187 23.9546 13.2823C23.9546 12.7831 23.7602 12.3232 23.4072 11.9872C23.0683 11.6646 22.6169 11.4869 22.1362 11.4869L17.3684 11.487C17.0062 11.0326 16.8935 10.416 17.0997 9.91961C17.523 8.90091 17.4967 8.03859 17.0148 7.12371C16.657 6.44467 15.695 5.76861 14.8865 5.88404C14.3978 5.95389 14.0442 6.2993 13.9405 6.80812C13.9099 6.95783 13.9016 7.11955 13.8919 7.30681C13.868 7.76876 13.8352 8.40146 13.4364 9.16546C13.1661 9.68336 13.0759 10.216 12.9963 10.686C12.8824 11.3593 12.8271 11.6836 12.4575 11.8078ZM9.41845 12.6444H11.3425V20.3416H9.41845V12.6444ZM14.1518 10.8816C14.2201 10.4784 14.2906 10.0615 14.4753 9.70774C14.9923 8.71727 15.036 7.8723 15.0622 7.36746C15.0692 7.23298 15.0758 7.10595 15.0888 7.04209C15.0888 7.04168 15.089 7.04121 15.0891 7.0408C15.2923 7.04361 15.7925 7.318 15.978 7.67003C16.299 8.27917 16.3096 8.76708 16.0176 9.47008C15.7542 10.1039 15.774 10.8395 16.0345 11.4934C15.7495 11.5331 15.5299 11.7771 15.5299 12.0731C15.5299 12.3967 15.7923 12.659 16.1158 12.659L22.1362 12.6589C22.3148 12.6589 22.4792 12.7218 22.5992 12.836C22.683 12.9157 22.7827 13.0578 22.7827 13.2824C22.7827 13.5966 22.4946 13.8684 22.1535 13.8758L20.6454 13.9087C20.3219 13.9157 20.0653 14.1836 20.0723 14.5072C20.0793 14.8264 20.3402 15.0804 20.6579 15.0804C20.6622 15.0804 20.6665 15.0804 20.6709 15.0803L21.9269 15.053C21.9679 15.1691 21.9892 15.3905 21.903 15.6441C21.8296 15.8599 21.6325 16.2218 21.1368 16.2218C20.8133 16.2218 20.5509 16.4841 20.5509 16.8077C20.5509 17.1313 20.8133 17.3936 21.1368 17.3936C21.2256 17.3936 21.3128 17.3881 21.3981 17.3773C21.4054 17.5431 21.3713 17.7373 21.2803 17.9233C21.1727 18.1432 20.9601 18.4053 20.558 18.4053C20.2345 18.4053 19.9721 18.6676 19.9721 18.9912C19.9721 19.3148 20.2345 19.5772 20.558 19.5772C20.6187 19.5772 20.6787 19.5745 20.7379 19.5691C20.7364 19.6816 20.7135 19.8222 20.6496 19.9759C20.5577 20.197 20.2593 20.7113 19.4756 20.7113H16.093C15.4785 20.7113 14.8415 20.5349 14.1671 20.3482C13.6304 20.1996 13.0802 20.0474 12.5145 19.9794V12.9937C13.8337 12.7547 14.0155 11.6867 14.1518 10.8816Z" fill="#F0F405"/>
<path d="M15.0002 4.45313C15.3238 4.45313 15.5861 4.1908 15.5861 3.86719C15.5861 3.54357 15.3238 3.28125 15.0002 3.28125H14.9998C14.6762 3.28125 14.4141 3.54357 14.4141 3.86719C14.4141 4.1908 14.6766 4.45313 15.0002 4.45313Z" fill="#F0F405"/>
</g>
<defs>
<clipPath id="clip0">
<rect width="30" height="30" fill="white"/>
</clipPath>
</defs>
</svg>
